%TF.GenerationSoftware,KiCad,Pcbnew,9.0.0*%
%TF.CreationDate,2025-03-28T07:35:41+02:00*%
%TF.ProjectId,EEE3088F_micro_mouse_power_subsystem,45454533-3038-4384-965f-6d6963726f5f,v0*%
%TF.SameCoordinates,Original*%
%TF.FileFunction,Soldermask,Bot*%
%TF.FilePolarity,Negative*%
%FSLAX46Y46*%
G04 Gerber Fmt 4.6, Leading zero omitted, Abs format (unit mm)*
G04 Created by KiCad (PCBNEW 9.0.0) date 2025-03-28 07:35:41*
%MOMM*%
%LPD*%
G01*
G04 APERTURE LIST*
G04 Aperture macros list*
%AMRoundRect*
0 Rectangle with rounded corners*
0 $1 Rounding radius*
0 $2 $3 $4 $5 $6 $7 $8 $9 X,Y pos of 4 corners*
0 Add a 4 corners polygon primitive as box body*
4,1,4,$2,$3,$4,$5,$6,$7,$8,$9,$2,$3,0*
0 Add four circle primitives for the rounded corners*
1,1,$1+$1,$2,$3*
1,1,$1+$1,$4,$5*
1,1,$1+$1,$6,$7*
1,1,$1+$1,$8,$9*
0 Add four rect primitives between the rounded corners*
20,1,$1+$1,$2,$3,$4,$5,0*
20,1,$1+$1,$4,$5,$6,$7,0*
20,1,$1+$1,$6,$7,$8,$9,0*
20,1,$1+$1,$8,$9,$2,$3,0*%
G04 Aperture macros list end*
%ADD10RoundRect,0.249999X-1.025001X-1.025001X1.025001X-1.025001X1.025001X1.025001X-1.025001X1.025001X0*%
%ADD11C,2.550000*%
%ADD12O,1.100000X1.700000*%
%ADD13R,1.600000X1.600000*%
%ADD14O,1.600000X1.600000*%
%ADD15R,1.700000X1.700000*%
%ADD16O,1.700000X1.700000*%
%ADD17RoundRect,0.250000X0.350000X0.625000X-0.350000X0.625000X-0.350000X-0.625000X0.350000X-0.625000X0*%
%ADD18O,1.200000X1.750000*%
G04 APERTURE END LIST*
D10*
%TO.C,SW2*%
X151000000Y-148800000D03*
D11*
X155800000Y-148800000D03*
X160600000Y-148800000D03*
%TD*%
D12*
%TO.C,J3*%
X146670000Y-147480000D03*
X146670000Y-143680000D03*
X138030000Y-147480000D03*
X138030000Y-143680000D03*
%TD*%
D13*
%TO.C,D1*%
X151637500Y-125500000D03*
D14*
X154177500Y-125500000D03*
%TD*%
D15*
%TO.C,J1*%
X166400000Y-135000000D03*
D16*
X166400000Y-137540000D03*
X163860000Y-135000000D03*
X163860000Y-137540000D03*
X161320000Y-135000000D03*
X161320000Y-137540000D03*
X158780000Y-135000000D03*
X158780000Y-137540000D03*
X156240000Y-135000000D03*
X156240000Y-137540000D03*
X153700000Y-135000000D03*
X153700000Y-137540000D03*
X151160000Y-135000000D03*
X151160000Y-137540000D03*
X148620000Y-135000000D03*
X148620000Y-137540000D03*
X146080000Y-135000000D03*
X146080000Y-137540000D03*
X143540000Y-135000000D03*
X143540000Y-137540000D03*
X141000000Y-135000000D03*
X141000000Y-137540000D03*
X138460000Y-135000000D03*
X138460000Y-137540000D03*
X135920000Y-135000000D03*
X135920000Y-137540000D03*
X133380000Y-135000000D03*
X133380000Y-137540000D03*
X130840000Y-135000000D03*
X130840000Y-137540000D03*
X128300000Y-135000000D03*
X128300000Y-137540000D03*
%TD*%
D17*
%TO.C,J2*%
X152837500Y-117450000D03*
D18*
X150837500Y-117450000D03*
%TD*%
M02*
