%TF.GenerationSoftware,KiCad,Pcbnew,9.0.0*%
%TF.CreationDate,2025-03-28T07:35:40+02:00*%
%TF.ProjectId,EEE3088F_micro_mouse_power_subsystem,45454533-3038-4384-965f-6d6963726f5f,v0*%
%TF.SameCoordinates,Original*%
%TF.FileFunction,Legend,Top*%
%TF.FilePolarity,Positive*%
%FSLAX46Y46*%
G04 Gerber Fmt 4.6, Leading zero omitted, Abs format (unit mm)*
G04 Created by KiCad (PCBNEW 9.0.0) date 2025-03-28 07:35:40*
%MOMM*%
%LPD*%
G01*
G04 APERTURE LIST*
G04 Aperture macros list*
%AMRoundRect*
0 Rectangle with rounded corners*
0 $1 Rounding radius*
0 $2 $3 $4 $5 $6 $7 $8 $9 X,Y pos of 4 corners*
0 Add a 4 corners polygon primitive as box body*
4,1,4,$2,$3,$4,$5,$6,$7,$8,$9,$2,$3,0*
0 Add four circle primitives for the rounded corners*
1,1,$1+$1,$2,$3*
1,1,$1+$1,$4,$5*
1,1,$1+$1,$6,$7*
1,1,$1+$1,$8,$9*
0 Add four rect primitives between the rounded corners*
20,1,$1+$1,$2,$3,$4,$5,0*
20,1,$1+$1,$4,$5,$6,$7,0*
20,1,$1+$1,$6,$7,$8,$9,0*
20,1,$1+$1,$8,$9,$2,$3,0*%
%AMFreePoly0*
4,1,6,1.000000,0.000000,0.500000,-0.750000,-0.500000,-0.750000,-0.500000,0.750000,0.500000,0.750000,1.000000,0.000000,1.000000,0.000000,$1*%
%AMFreePoly1*
4,1,6,0.500000,-0.750000,-0.650000,-0.750000,-0.150000,0.000000,-0.650000,0.750000,0.500000,0.750000,0.500000,-0.750000,0.500000,-0.750000,$1*%
G04 Aperture macros list end*
%ADD10C,0.150000*%
%ADD11C,0.120000*%
%ADD12RoundRect,0.225000X0.250000X-0.225000X0.250000X0.225000X-0.250000X0.225000X-0.250000X-0.225000X0*%
%ADD13RoundRect,0.140000X0.170000X-0.140000X0.170000X0.140000X-0.170000X0.140000X-0.170000X-0.140000X0*%
%ADD14RoundRect,0.140000X-0.170000X0.140000X-0.170000X-0.140000X0.170000X-0.140000X0.170000X0.140000X0*%
%ADD15RoundRect,0.250000X0.625000X-0.375000X0.625000X0.375000X-0.625000X0.375000X-0.625000X-0.375000X0*%
%ADD16RoundRect,0.250000X0.375000X0.850000X-0.375000X0.850000X-0.375000X-0.850000X0.375000X-0.850000X0*%
%ADD17RoundRect,0.250000X-0.312500X-0.625000X0.312500X-0.625000X0.312500X0.625000X-0.312500X0.625000X0*%
%ADD18RoundRect,0.250000X0.262500X0.450000X-0.262500X0.450000X-0.262500X-0.450000X0.262500X-0.450000X0*%
%ADD19RoundRect,0.200000X0.275000X-0.200000X0.275000X0.200000X-0.275000X0.200000X-0.275000X-0.200000X0*%
%ADD20RoundRect,0.135000X-0.185000X0.135000X-0.185000X-0.135000X0.185000X-0.135000X0.185000X0.135000X0*%
%ADD21RoundRect,0.200000X-0.275000X0.200000X-0.275000X-0.200000X0.275000X-0.200000X0.275000X0.200000X0*%
%ADD22RoundRect,0.249999X-1.025001X-1.025001X1.025001X-1.025001X1.025001X1.025001X-1.025001X1.025001X0*%
%ADD23C,2.550000*%
%ADD24RoundRect,0.150000X-0.512500X-0.150000X0.512500X-0.150000X0.512500X0.150000X-0.512500X0.150000X0*%
%ADD25R,2.100000X3.300000*%
%ADD26RoundRect,0.150000X-0.687500X-0.150000X0.687500X-0.150000X0.687500X0.150000X-0.687500X0.150000X0*%
%ADD27O,1.100000X1.700000*%
%ADD28RoundRect,0.200000X-0.200000X-0.400000X0.200000X-0.400000X0.200000X0.400000X-0.200000X0.400000X0*%
%ADD29RoundRect,0.190000X-0.190000X-0.410000X0.190000X-0.410000X0.190000X0.410000X-0.190000X0.410000X0*%
%ADD30RoundRect,0.175000X0.175000X0.425000X-0.175000X0.425000X-0.175000X-0.425000X0.175000X-0.425000X0*%
%ADD31RoundRect,0.200000X0.200000X0.400000X-0.200000X0.400000X-0.200000X-0.400000X0.200000X-0.400000X0*%
%ADD32RoundRect,0.190000X0.190000X0.410000X-0.190000X0.410000X-0.190000X-0.410000X0.190000X-0.410000X0*%
%ADD33RoundRect,0.175000X-0.175000X-0.425000X0.175000X-0.425000X0.175000X0.425000X-0.175000X0.425000X0*%
%ADD34R,1.900000X1.100000*%
%ADD35RoundRect,0.125000X0.125000X-0.187500X0.125000X0.187500X-0.125000X0.187500X-0.125000X-0.187500X0*%
%ADD36R,1.600000X1.600000*%
%ADD37O,1.600000X1.600000*%
%ADD38R,1.700000X1.700000*%
%ADD39O,1.700000X1.700000*%
%ADD40RoundRect,0.150000X0.150000X-0.825000X0.150000X0.825000X-0.150000X0.825000X-0.150000X-0.825000X0*%
%ADD41R,3.300000X2.410000*%
%ADD42RoundRect,0.100000X-0.100000X0.637500X-0.100000X-0.637500X0.100000X-0.637500X0.100000X0.637500X0*%
%ADD43RoundRect,0.125000X-0.537500X-0.125000X0.537500X-0.125000X0.537500X0.125000X-0.537500X0.125000X0*%
%ADD44RoundRect,0.250000X-0.625000X0.312500X-0.625000X-0.312500X0.625000X-0.312500X0.625000X0.312500X0*%
%ADD45RoundRect,0.250000X0.312500X0.625000X-0.312500X0.625000X-0.312500X-0.625000X0.312500X-0.625000X0*%
%ADD46RoundRect,0.200000X-0.200000X-0.275000X0.200000X-0.275000X0.200000X0.275000X-0.200000X0.275000X0*%
%ADD47RoundRect,0.200000X0.200000X0.275000X-0.200000X0.275000X-0.200000X-0.275000X0.200000X-0.275000X0*%
%ADD48RoundRect,0.250000X-0.262500X-0.450000X0.262500X-0.450000X0.262500X0.450000X-0.262500X0.450000X0*%
%ADD49RoundRect,0.135000X0.135000X0.185000X-0.135000X0.185000X-0.135000X-0.185000X0.135000X-0.185000X0*%
%ADD50RoundRect,0.150000X-0.587500X-0.150000X0.587500X-0.150000X0.587500X0.150000X-0.587500X0.150000X0*%
%ADD51RoundRect,0.150000X0.150000X-0.587500X0.150000X0.587500X-0.150000X0.587500X-0.150000X-0.587500X0*%
%ADD52RoundRect,0.150000X0.587500X0.150000X-0.587500X0.150000X-0.587500X-0.150000X0.587500X-0.150000X0*%
%ADD53FreePoly0,180.000000*%
%ADD54FreePoly1,180.000000*%
%ADD55RoundRect,0.250000X0.350000X0.625000X-0.350000X0.625000X-0.350000X-0.625000X0.350000X-0.625000X0*%
%ADD56O,1.200000X1.750000*%
%ADD57RoundRect,0.250000X0.475000X-0.250000X0.475000X0.250000X-0.475000X0.250000X-0.475000X-0.250000X0*%
%ADD58RoundRect,0.225000X-0.225000X-0.250000X0.225000X-0.250000X0.225000X0.250000X-0.225000X0.250000X0*%
%ADD59RoundRect,0.225000X-0.250000X0.225000X-0.250000X-0.225000X0.250000X-0.225000X0.250000X0.225000X0*%
%ADD60RoundRect,0.140000X-0.140000X-0.170000X0.140000X-0.170000X0.140000X0.170000X-0.140000X0.170000X0*%
G04 APERTURE END LIST*
D10*
X154329580Y-143067857D02*
X154377200Y-143115476D01*
X154377200Y-143115476D02*
X154424819Y-143258333D01*
X154424819Y-143258333D02*
X154424819Y-143353571D01*
X154424819Y-143353571D02*
X154377200Y-143496428D01*
X154377200Y-143496428D02*
X154281961Y-143591666D01*
X154281961Y-143591666D02*
X154186723Y-143639285D01*
X154186723Y-143639285D02*
X153996247Y-143686904D01*
X153996247Y-143686904D02*
X153853390Y-143686904D01*
X153853390Y-143686904D02*
X153662914Y-143639285D01*
X153662914Y-143639285D02*
X153567676Y-143591666D01*
X153567676Y-143591666D02*
X153472438Y-143496428D01*
X153472438Y-143496428D02*
X153424819Y-143353571D01*
X153424819Y-143353571D02*
X153424819Y-143258333D01*
X153424819Y-143258333D02*
X153472438Y-143115476D01*
X153472438Y-143115476D02*
X153520057Y-143067857D01*
X154424819Y-142115476D02*
X154424819Y-142686904D01*
X154424819Y-142401190D02*
X153424819Y-142401190D01*
X153424819Y-142401190D02*
X153567676Y-142496428D01*
X153567676Y-142496428D02*
X153662914Y-142591666D01*
X153662914Y-142591666D02*
X153710533Y-142686904D01*
X153424819Y-141782142D02*
X153424819Y-141163095D01*
X153424819Y-141163095D02*
X153805771Y-141496428D01*
X153805771Y-141496428D02*
X153805771Y-141353571D01*
X153805771Y-141353571D02*
X153853390Y-141258333D01*
X153853390Y-141258333D02*
X153901009Y-141210714D01*
X153901009Y-141210714D02*
X153996247Y-141163095D01*
X153996247Y-141163095D02*
X154234342Y-141163095D01*
X154234342Y-141163095D02*
X154329580Y-141210714D01*
X154329580Y-141210714D02*
X154377200Y-141258333D01*
X154377200Y-141258333D02*
X154424819Y-141353571D01*
X154424819Y-141353571D02*
X154424819Y-141639285D01*
X154424819Y-141639285D02*
X154377200Y-141734523D01*
X154377200Y-141734523D02*
X154329580Y-141782142D01*
X135632080Y-141166666D02*
X135679700Y-141214285D01*
X135679700Y-141214285D02*
X135727319Y-141357142D01*
X135727319Y-141357142D02*
X135727319Y-141452380D01*
X135727319Y-141452380D02*
X135679700Y-141595237D01*
X135679700Y-141595237D02*
X135584461Y-141690475D01*
X135584461Y-141690475D02*
X135489223Y-141738094D01*
X135489223Y-141738094D02*
X135298747Y-141785713D01*
X135298747Y-141785713D02*
X135155890Y-141785713D01*
X135155890Y-141785713D02*
X134965414Y-141738094D01*
X134965414Y-141738094D02*
X134870176Y-141690475D01*
X134870176Y-141690475D02*
X134774938Y-141595237D01*
X134774938Y-141595237D02*
X134727319Y-141452380D01*
X134727319Y-141452380D02*
X134727319Y-141357142D01*
X134727319Y-141357142D02*
X134774938Y-141214285D01*
X134774938Y-141214285D02*
X134822557Y-141166666D01*
X134727319Y-140309523D02*
X134727319Y-140499999D01*
X134727319Y-140499999D02*
X134774938Y-140595237D01*
X134774938Y-140595237D02*
X134822557Y-140642856D01*
X134822557Y-140642856D02*
X134965414Y-140738094D01*
X134965414Y-140738094D02*
X135155890Y-140785713D01*
X135155890Y-140785713D02*
X135536842Y-140785713D01*
X135536842Y-140785713D02*
X135632080Y-140738094D01*
X135632080Y-140738094D02*
X135679700Y-140690475D01*
X135679700Y-140690475D02*
X135727319Y-140595237D01*
X135727319Y-140595237D02*
X135727319Y-140404761D01*
X135727319Y-140404761D02*
X135679700Y-140309523D01*
X135679700Y-140309523D02*
X135632080Y-140261904D01*
X135632080Y-140261904D02*
X135536842Y-140214285D01*
X135536842Y-140214285D02*
X135298747Y-140214285D01*
X135298747Y-140214285D02*
X135203509Y-140261904D01*
X135203509Y-140261904D02*
X135155890Y-140309523D01*
X135155890Y-140309523D02*
X135108271Y-140404761D01*
X135108271Y-140404761D02*
X135108271Y-140595237D01*
X135108271Y-140595237D02*
X135155890Y-140690475D01*
X135155890Y-140690475D02*
X135203509Y-140738094D01*
X135203509Y-140738094D02*
X135298747Y-140785713D01*
X168682080Y-146612857D02*
X168729700Y-146660476D01*
X168729700Y-146660476D02*
X168777319Y-146803333D01*
X168777319Y-146803333D02*
X168777319Y-146898571D01*
X168777319Y-146898571D02*
X168729700Y-147041428D01*
X168729700Y-147041428D02*
X168634461Y-147136666D01*
X168634461Y-147136666D02*
X168539223Y-147184285D01*
X168539223Y-147184285D02*
X168348747Y-147231904D01*
X168348747Y-147231904D02*
X168205890Y-147231904D01*
X168205890Y-147231904D02*
X168015414Y-147184285D01*
X168015414Y-147184285D02*
X167920176Y-147136666D01*
X167920176Y-147136666D02*
X167824938Y-147041428D01*
X167824938Y-147041428D02*
X167777319Y-146898571D01*
X167777319Y-146898571D02*
X167777319Y-146803333D01*
X167777319Y-146803333D02*
X167824938Y-146660476D01*
X167824938Y-146660476D02*
X167872557Y-146612857D01*
X168777319Y-145660476D02*
X168777319Y-146231904D01*
X168777319Y-145946190D02*
X167777319Y-145946190D01*
X167777319Y-145946190D02*
X167920176Y-146041428D01*
X167920176Y-146041428D02*
X168015414Y-146136666D01*
X168015414Y-146136666D02*
X168063033Y-146231904D01*
X167872557Y-145279523D02*
X167824938Y-145231904D01*
X167824938Y-145231904D02*
X167777319Y-145136666D01*
X167777319Y-145136666D02*
X167777319Y-144898571D01*
X167777319Y-144898571D02*
X167824938Y-144803333D01*
X167824938Y-144803333D02*
X167872557Y-144755714D01*
X167872557Y-144755714D02*
X167967795Y-144708095D01*
X167967795Y-144708095D02*
X168063033Y-144708095D01*
X168063033Y-144708095D02*
X168205890Y-144755714D01*
X168205890Y-144755714D02*
X168777319Y-145327142D01*
X168777319Y-145327142D02*
X168777319Y-144708095D01*
X155934819Y-140838094D02*
X154934819Y-140838094D01*
X154934819Y-140838094D02*
X154934819Y-140599999D01*
X154934819Y-140599999D02*
X154982438Y-140457142D01*
X154982438Y-140457142D02*
X155077676Y-140361904D01*
X155077676Y-140361904D02*
X155172914Y-140314285D01*
X155172914Y-140314285D02*
X155363390Y-140266666D01*
X155363390Y-140266666D02*
X155506247Y-140266666D01*
X155506247Y-140266666D02*
X155696723Y-140314285D01*
X155696723Y-140314285D02*
X155791961Y-140361904D01*
X155791961Y-140361904D02*
X155887200Y-140457142D01*
X155887200Y-140457142D02*
X155934819Y-140599999D01*
X155934819Y-140599999D02*
X155934819Y-140838094D01*
X155030057Y-139885713D02*
X154982438Y-139838094D01*
X154982438Y-139838094D02*
X154934819Y-139742856D01*
X154934819Y-139742856D02*
X154934819Y-139504761D01*
X154934819Y-139504761D02*
X154982438Y-139409523D01*
X154982438Y-139409523D02*
X155030057Y-139361904D01*
X155030057Y-139361904D02*
X155125295Y-139314285D01*
X155125295Y-139314285D02*
X155220533Y-139314285D01*
X155220533Y-139314285D02*
X155363390Y-139361904D01*
X155363390Y-139361904D02*
X155934819Y-139933332D01*
X155934819Y-139933332D02*
X155934819Y-139314285D01*
X161433333Y-140454819D02*
X160957143Y-140454819D01*
X160957143Y-140454819D02*
X160957143Y-139454819D01*
X162290476Y-140454819D02*
X161719048Y-140454819D01*
X162004762Y-140454819D02*
X162004762Y-139454819D01*
X162004762Y-139454819D02*
X161909524Y-139597676D01*
X161909524Y-139597676D02*
X161814286Y-139692914D01*
X161814286Y-139692914D02*
X161719048Y-139740533D01*
X139065833Y-140054819D02*
X138732500Y-139578628D01*
X138494405Y-140054819D02*
X138494405Y-139054819D01*
X138494405Y-139054819D02*
X138875357Y-139054819D01*
X138875357Y-139054819D02*
X138970595Y-139102438D01*
X138970595Y-139102438D02*
X139018214Y-139150057D01*
X139018214Y-139150057D02*
X139065833Y-139245295D01*
X139065833Y-139245295D02*
X139065833Y-139388152D01*
X139065833Y-139388152D02*
X139018214Y-139483390D01*
X139018214Y-139483390D02*
X138970595Y-139531009D01*
X138970595Y-139531009D02*
X138875357Y-139578628D01*
X138875357Y-139578628D02*
X138494405Y-139578628D01*
X139922976Y-139388152D02*
X139922976Y-140054819D01*
X139684881Y-139007200D02*
X139446786Y-139721485D01*
X139446786Y-139721485D02*
X140065833Y-139721485D01*
X133533333Y-141954819D02*
X133200000Y-141478628D01*
X132961905Y-141954819D02*
X132961905Y-140954819D01*
X132961905Y-140954819D02*
X133342857Y-140954819D01*
X133342857Y-140954819D02*
X133438095Y-141002438D01*
X133438095Y-141002438D02*
X133485714Y-141050057D01*
X133485714Y-141050057D02*
X133533333Y-141145295D01*
X133533333Y-141145295D02*
X133533333Y-141288152D01*
X133533333Y-141288152D02*
X133485714Y-141383390D01*
X133485714Y-141383390D02*
X133438095Y-141431009D01*
X133438095Y-141431009D02*
X133342857Y-141478628D01*
X133342857Y-141478628D02*
X132961905Y-141478628D01*
X134438095Y-140954819D02*
X133961905Y-140954819D01*
X133961905Y-140954819D02*
X133914286Y-141431009D01*
X133914286Y-141431009D02*
X133961905Y-141383390D01*
X133961905Y-141383390D02*
X134057143Y-141335771D01*
X134057143Y-141335771D02*
X134295238Y-141335771D01*
X134295238Y-141335771D02*
X134390476Y-141383390D01*
X134390476Y-141383390D02*
X134438095Y-141431009D01*
X134438095Y-141431009D02*
X134485714Y-141526247D01*
X134485714Y-141526247D02*
X134485714Y-141764342D01*
X134485714Y-141764342D02*
X134438095Y-141859580D01*
X134438095Y-141859580D02*
X134390476Y-141907200D01*
X134390476Y-141907200D02*
X134295238Y-141954819D01*
X134295238Y-141954819D02*
X134057143Y-141954819D01*
X134057143Y-141954819D02*
X133961905Y-141907200D01*
X133961905Y-141907200D02*
X133914286Y-141859580D01*
X165254819Y-142742857D02*
X164778628Y-143076190D01*
X165254819Y-143314285D02*
X164254819Y-143314285D01*
X164254819Y-143314285D02*
X164254819Y-142933333D01*
X164254819Y-142933333D02*
X164302438Y-142838095D01*
X164302438Y-142838095D02*
X164350057Y-142790476D01*
X164350057Y-142790476D02*
X164445295Y-142742857D01*
X164445295Y-142742857D02*
X164588152Y-142742857D01*
X164588152Y-142742857D02*
X164683390Y-142790476D01*
X164683390Y-142790476D02*
X164731009Y-142838095D01*
X164731009Y-142838095D02*
X164778628Y-142933333D01*
X164778628Y-142933333D02*
X164778628Y-143314285D01*
X165254819Y-141790476D02*
X165254819Y-142361904D01*
X165254819Y-142076190D02*
X164254819Y-142076190D01*
X164254819Y-142076190D02*
X164397676Y-142171428D01*
X164397676Y-142171428D02*
X164492914Y-142266666D01*
X164492914Y-142266666D02*
X164540533Y-142361904D01*
X164350057Y-141409523D02*
X164302438Y-141361904D01*
X164302438Y-141361904D02*
X164254819Y-141266666D01*
X164254819Y-141266666D02*
X164254819Y-141028571D01*
X164254819Y-141028571D02*
X164302438Y-140933333D01*
X164302438Y-140933333D02*
X164350057Y-140885714D01*
X164350057Y-140885714D02*
X164445295Y-140838095D01*
X164445295Y-140838095D02*
X164540533Y-140838095D01*
X164540533Y-140838095D02*
X164683390Y-140885714D01*
X164683390Y-140885714D02*
X165254819Y-141457142D01*
X165254819Y-141457142D02*
X165254819Y-140838095D01*
X153357142Y-146954819D02*
X153023809Y-146478628D01*
X152785714Y-146954819D02*
X152785714Y-145954819D01*
X152785714Y-145954819D02*
X153166666Y-145954819D01*
X153166666Y-145954819D02*
X153261904Y-146002438D01*
X153261904Y-146002438D02*
X153309523Y-146050057D01*
X153309523Y-146050057D02*
X153357142Y-146145295D01*
X153357142Y-146145295D02*
X153357142Y-146288152D01*
X153357142Y-146288152D02*
X153309523Y-146383390D01*
X153309523Y-146383390D02*
X153261904Y-146431009D01*
X153261904Y-146431009D02*
X153166666Y-146478628D01*
X153166666Y-146478628D02*
X152785714Y-146478628D01*
X154309523Y-146954819D02*
X153738095Y-146954819D01*
X154023809Y-146954819D02*
X154023809Y-145954819D01*
X154023809Y-145954819D02*
X153928571Y-146097676D01*
X153928571Y-146097676D02*
X153833333Y-146192914D01*
X153833333Y-146192914D02*
X153738095Y-146240533D01*
X155214285Y-145954819D02*
X154738095Y-145954819D01*
X154738095Y-145954819D02*
X154690476Y-146431009D01*
X154690476Y-146431009D02*
X154738095Y-146383390D01*
X154738095Y-146383390D02*
X154833333Y-146335771D01*
X154833333Y-146335771D02*
X155071428Y-146335771D01*
X155071428Y-146335771D02*
X155166666Y-146383390D01*
X155166666Y-146383390D02*
X155214285Y-146431009D01*
X155214285Y-146431009D02*
X155261904Y-146526247D01*
X155261904Y-146526247D02*
X155261904Y-146764342D01*
X155261904Y-146764342D02*
X155214285Y-146859580D01*
X155214285Y-146859580D02*
X155166666Y-146907200D01*
X155166666Y-146907200D02*
X155071428Y-146954819D01*
X155071428Y-146954819D02*
X154833333Y-146954819D01*
X154833333Y-146954819D02*
X154738095Y-146907200D01*
X154738095Y-146907200D02*
X154690476Y-146859580D01*
X159584819Y-146117857D02*
X159108628Y-146451190D01*
X159584819Y-146689285D02*
X158584819Y-146689285D01*
X158584819Y-146689285D02*
X158584819Y-146308333D01*
X158584819Y-146308333D02*
X158632438Y-146213095D01*
X158632438Y-146213095D02*
X158680057Y-146165476D01*
X158680057Y-146165476D02*
X158775295Y-146117857D01*
X158775295Y-146117857D02*
X158918152Y-146117857D01*
X158918152Y-146117857D02*
X159013390Y-146165476D01*
X159013390Y-146165476D02*
X159061009Y-146213095D01*
X159061009Y-146213095D02*
X159108628Y-146308333D01*
X159108628Y-146308333D02*
X159108628Y-146689285D01*
X159584819Y-145165476D02*
X159584819Y-145736904D01*
X159584819Y-145451190D02*
X158584819Y-145451190D01*
X158584819Y-145451190D02*
X158727676Y-145546428D01*
X158727676Y-145546428D02*
X158822914Y-145641666D01*
X158822914Y-145641666D02*
X158870533Y-145736904D01*
X158584819Y-144832142D02*
X158584819Y-144213095D01*
X158584819Y-144213095D02*
X158965771Y-144546428D01*
X158965771Y-144546428D02*
X158965771Y-144403571D01*
X158965771Y-144403571D02*
X159013390Y-144308333D01*
X159013390Y-144308333D02*
X159061009Y-144260714D01*
X159061009Y-144260714D02*
X159156247Y-144213095D01*
X159156247Y-144213095D02*
X159394342Y-144213095D01*
X159394342Y-144213095D02*
X159489580Y-144260714D01*
X159489580Y-144260714D02*
X159537200Y-144308333D01*
X159537200Y-144308333D02*
X159584819Y-144403571D01*
X159584819Y-144403571D02*
X159584819Y-144689285D01*
X159584819Y-144689285D02*
X159537200Y-144784523D01*
X159537200Y-144784523D02*
X159489580Y-144832142D01*
X162766667Y-150607200D02*
X162909524Y-150654819D01*
X162909524Y-150654819D02*
X163147619Y-150654819D01*
X163147619Y-150654819D02*
X163242857Y-150607200D01*
X163242857Y-150607200D02*
X163290476Y-150559580D01*
X163290476Y-150559580D02*
X163338095Y-150464342D01*
X163338095Y-150464342D02*
X163338095Y-150369104D01*
X163338095Y-150369104D02*
X163290476Y-150273866D01*
X163290476Y-150273866D02*
X163242857Y-150226247D01*
X163242857Y-150226247D02*
X163147619Y-150178628D01*
X163147619Y-150178628D02*
X162957143Y-150131009D01*
X162957143Y-150131009D02*
X162861905Y-150083390D01*
X162861905Y-150083390D02*
X162814286Y-150035771D01*
X162814286Y-150035771D02*
X162766667Y-149940533D01*
X162766667Y-149940533D02*
X162766667Y-149845295D01*
X162766667Y-149845295D02*
X162814286Y-149750057D01*
X162814286Y-149750057D02*
X162861905Y-149702438D01*
X162861905Y-149702438D02*
X162957143Y-149654819D01*
X162957143Y-149654819D02*
X163195238Y-149654819D01*
X163195238Y-149654819D02*
X163338095Y-149702438D01*
X163671429Y-149654819D02*
X163909524Y-150654819D01*
X163909524Y-150654819D02*
X164100000Y-149940533D01*
X164100000Y-149940533D02*
X164290476Y-150654819D01*
X164290476Y-150654819D02*
X164528572Y-149654819D01*
X164861905Y-149750057D02*
X164909524Y-149702438D01*
X164909524Y-149702438D02*
X165004762Y-149654819D01*
X165004762Y-149654819D02*
X165242857Y-149654819D01*
X165242857Y-149654819D02*
X165338095Y-149702438D01*
X165338095Y-149702438D02*
X165385714Y-149750057D01*
X165385714Y-149750057D02*
X165433333Y-149845295D01*
X165433333Y-149845295D02*
X165433333Y-149940533D01*
X165433333Y-149940533D02*
X165385714Y-150083390D01*
X165385714Y-150083390D02*
X164814286Y-150654819D01*
X164814286Y-150654819D02*
X165433333Y-150654819D01*
X152257142Y-145254819D02*
X151923809Y-144778628D01*
X151685714Y-145254819D02*
X151685714Y-144254819D01*
X151685714Y-144254819D02*
X152066666Y-144254819D01*
X152066666Y-144254819D02*
X152161904Y-144302438D01*
X152161904Y-144302438D02*
X152209523Y-144350057D01*
X152209523Y-144350057D02*
X152257142Y-144445295D01*
X152257142Y-144445295D02*
X152257142Y-144588152D01*
X152257142Y-144588152D02*
X152209523Y-144683390D01*
X152209523Y-144683390D02*
X152161904Y-144731009D01*
X152161904Y-144731009D02*
X152066666Y-144778628D01*
X152066666Y-144778628D02*
X151685714Y-144778628D01*
X153209523Y-145254819D02*
X152638095Y-145254819D01*
X152923809Y-145254819D02*
X152923809Y-144254819D01*
X152923809Y-144254819D02*
X152828571Y-144397676D01*
X152828571Y-144397676D02*
X152733333Y-144492914D01*
X152733333Y-144492914D02*
X152638095Y-144540533D01*
X154066666Y-144588152D02*
X154066666Y-145254819D01*
X153828571Y-144207200D02*
X153590476Y-144921485D01*
X153590476Y-144921485D02*
X154209523Y-144921485D01*
X160038095Y-144754819D02*
X160038095Y-145564342D01*
X160038095Y-145564342D02*
X160085714Y-145659580D01*
X160085714Y-145659580D02*
X160133333Y-145707200D01*
X160133333Y-145707200D02*
X160228571Y-145754819D01*
X160228571Y-145754819D02*
X160419047Y-145754819D01*
X160419047Y-145754819D02*
X160514285Y-145707200D01*
X160514285Y-145707200D02*
X160561904Y-145659580D01*
X160561904Y-145659580D02*
X160609523Y-145564342D01*
X160609523Y-145564342D02*
X160609523Y-144754819D01*
X161133333Y-145754819D02*
X161323809Y-145754819D01*
X161323809Y-145754819D02*
X161419047Y-145707200D01*
X161419047Y-145707200D02*
X161466666Y-145659580D01*
X161466666Y-145659580D02*
X161561904Y-145516723D01*
X161561904Y-145516723D02*
X161609523Y-145326247D01*
X161609523Y-145326247D02*
X161609523Y-144945295D01*
X161609523Y-144945295D02*
X161561904Y-144850057D01*
X161561904Y-144850057D02*
X161514285Y-144802438D01*
X161514285Y-144802438D02*
X161419047Y-144754819D01*
X161419047Y-144754819D02*
X161228571Y-144754819D01*
X161228571Y-144754819D02*
X161133333Y-144802438D01*
X161133333Y-144802438D02*
X161085714Y-144850057D01*
X161085714Y-144850057D02*
X161038095Y-144945295D01*
X161038095Y-144945295D02*
X161038095Y-145183390D01*
X161038095Y-145183390D02*
X161085714Y-145278628D01*
X161085714Y-145278628D02*
X161133333Y-145326247D01*
X161133333Y-145326247D02*
X161228571Y-145373866D01*
X161228571Y-145373866D02*
X161419047Y-145373866D01*
X161419047Y-145373866D02*
X161514285Y-145326247D01*
X161514285Y-145326247D02*
X161561904Y-145278628D01*
X161561904Y-145278628D02*
X161609523Y-145183390D01*
X134638095Y-149454819D02*
X134638095Y-150264342D01*
X134638095Y-150264342D02*
X134685714Y-150359580D01*
X134685714Y-150359580D02*
X134733333Y-150407200D01*
X134733333Y-150407200D02*
X134828571Y-150454819D01*
X134828571Y-150454819D02*
X135019047Y-150454819D01*
X135019047Y-150454819D02*
X135114285Y-150407200D01*
X135114285Y-150407200D02*
X135161904Y-150359580D01*
X135161904Y-150359580D02*
X135209523Y-150264342D01*
X135209523Y-150264342D02*
X135209523Y-149454819D01*
X136161904Y-149454819D02*
X135685714Y-149454819D01*
X135685714Y-149454819D02*
X135638095Y-149931009D01*
X135638095Y-149931009D02*
X135685714Y-149883390D01*
X135685714Y-149883390D02*
X135780952Y-149835771D01*
X135780952Y-149835771D02*
X136019047Y-149835771D01*
X136019047Y-149835771D02*
X136114285Y-149883390D01*
X136114285Y-149883390D02*
X136161904Y-149931009D01*
X136161904Y-149931009D02*
X136209523Y-150026247D01*
X136209523Y-150026247D02*
X136209523Y-150264342D01*
X136209523Y-150264342D02*
X136161904Y-150359580D01*
X136161904Y-150359580D02*
X136114285Y-150407200D01*
X136114285Y-150407200D02*
X136019047Y-150454819D01*
X136019047Y-150454819D02*
X135780952Y-150454819D01*
X135780952Y-150454819D02*
X135685714Y-150407200D01*
X135685714Y-150407200D02*
X135638095Y-150359580D01*
X164038095Y-143854819D02*
X164038095Y-144664342D01*
X164038095Y-144664342D02*
X164085714Y-144759580D01*
X164085714Y-144759580D02*
X164133333Y-144807200D01*
X164133333Y-144807200D02*
X164228571Y-144854819D01*
X164228571Y-144854819D02*
X164419047Y-144854819D01*
X164419047Y-144854819D02*
X164514285Y-144807200D01*
X164514285Y-144807200D02*
X164561904Y-144759580D01*
X164561904Y-144759580D02*
X164609523Y-144664342D01*
X164609523Y-144664342D02*
X164609523Y-143854819D01*
X165228571Y-144283390D02*
X165133333Y-144235771D01*
X165133333Y-144235771D02*
X165085714Y-144188152D01*
X165085714Y-144188152D02*
X165038095Y-144092914D01*
X165038095Y-144092914D02*
X165038095Y-144045295D01*
X165038095Y-144045295D02*
X165085714Y-143950057D01*
X165085714Y-143950057D02*
X165133333Y-143902438D01*
X165133333Y-143902438D02*
X165228571Y-143854819D01*
X165228571Y-143854819D02*
X165419047Y-143854819D01*
X165419047Y-143854819D02*
X165514285Y-143902438D01*
X165514285Y-143902438D02*
X165561904Y-143950057D01*
X165561904Y-143950057D02*
X165609523Y-144045295D01*
X165609523Y-144045295D02*
X165609523Y-144092914D01*
X165609523Y-144092914D02*
X165561904Y-144188152D01*
X165561904Y-144188152D02*
X165514285Y-144235771D01*
X165514285Y-144235771D02*
X165419047Y-144283390D01*
X165419047Y-144283390D02*
X165228571Y-144283390D01*
X165228571Y-144283390D02*
X165133333Y-144331009D01*
X165133333Y-144331009D02*
X165085714Y-144378628D01*
X165085714Y-144378628D02*
X165038095Y-144473866D01*
X165038095Y-144473866D02*
X165038095Y-144664342D01*
X165038095Y-144664342D02*
X165085714Y-144759580D01*
X165085714Y-144759580D02*
X165133333Y-144807200D01*
X165133333Y-144807200D02*
X165228571Y-144854819D01*
X165228571Y-144854819D02*
X165419047Y-144854819D01*
X165419047Y-144854819D02*
X165514285Y-144807200D01*
X165514285Y-144807200D02*
X165561904Y-144759580D01*
X165561904Y-144759580D02*
X165609523Y-144664342D01*
X165609523Y-144664342D02*
X165609523Y-144473866D01*
X165609523Y-144473866D02*
X165561904Y-144378628D01*
X165561904Y-144378628D02*
X165514285Y-144331009D01*
X165514285Y-144331009D02*
X165419047Y-144283390D01*
X142016666Y-141034819D02*
X142016666Y-141749104D01*
X142016666Y-141749104D02*
X141969047Y-141891961D01*
X141969047Y-141891961D02*
X141873809Y-141987200D01*
X141873809Y-141987200D02*
X141730952Y-142034819D01*
X141730952Y-142034819D02*
X141635714Y-142034819D01*
X142397619Y-141034819D02*
X143016666Y-141034819D01*
X143016666Y-141034819D02*
X142683333Y-141415771D01*
X142683333Y-141415771D02*
X142826190Y-141415771D01*
X142826190Y-141415771D02*
X142921428Y-141463390D01*
X142921428Y-141463390D02*
X142969047Y-141511009D01*
X142969047Y-141511009D02*
X143016666Y-141606247D01*
X143016666Y-141606247D02*
X143016666Y-141844342D01*
X143016666Y-141844342D02*
X142969047Y-141939580D01*
X142969047Y-141939580D02*
X142921428Y-141987200D01*
X142921428Y-141987200D02*
X142826190Y-142034819D01*
X142826190Y-142034819D02*
X142540476Y-142034819D01*
X142540476Y-142034819D02*
X142445238Y-141987200D01*
X142445238Y-141987200D02*
X142397619Y-141939580D01*
X137838095Y-126354819D02*
X137838095Y-127164342D01*
X137838095Y-127164342D02*
X137885714Y-127259580D01*
X137885714Y-127259580D02*
X137933333Y-127307200D01*
X137933333Y-127307200D02*
X138028571Y-127354819D01*
X138028571Y-127354819D02*
X138219047Y-127354819D01*
X138219047Y-127354819D02*
X138314285Y-127307200D01*
X138314285Y-127307200D02*
X138361904Y-127259580D01*
X138361904Y-127259580D02*
X138409523Y-127164342D01*
X138409523Y-127164342D02*
X138409523Y-126354819D01*
X139314285Y-126354819D02*
X139123809Y-126354819D01*
X139123809Y-126354819D02*
X139028571Y-126402438D01*
X139028571Y-126402438D02*
X138980952Y-126450057D01*
X138980952Y-126450057D02*
X138885714Y-126592914D01*
X138885714Y-126592914D02*
X138838095Y-126783390D01*
X138838095Y-126783390D02*
X138838095Y-127164342D01*
X138838095Y-127164342D02*
X138885714Y-127259580D01*
X138885714Y-127259580D02*
X138933333Y-127307200D01*
X138933333Y-127307200D02*
X139028571Y-127354819D01*
X139028571Y-127354819D02*
X139219047Y-127354819D01*
X139219047Y-127354819D02*
X139314285Y-127307200D01*
X139314285Y-127307200D02*
X139361904Y-127259580D01*
X139361904Y-127259580D02*
X139409523Y-127164342D01*
X139409523Y-127164342D02*
X139409523Y-126926247D01*
X139409523Y-126926247D02*
X139361904Y-126831009D01*
X139361904Y-126831009D02*
X139314285Y-126783390D01*
X139314285Y-126783390D02*
X139219047Y-126735771D01*
X139219047Y-126735771D02*
X139028571Y-126735771D01*
X139028571Y-126735771D02*
X138933333Y-126783390D01*
X138933333Y-126783390D02*
X138885714Y-126831009D01*
X138885714Y-126831009D02*
X138838095Y-126926247D01*
X153561905Y-123954819D02*
X153561905Y-122954819D01*
X153561905Y-122954819D02*
X153800000Y-122954819D01*
X153800000Y-122954819D02*
X153942857Y-123002438D01*
X153942857Y-123002438D02*
X154038095Y-123097676D01*
X154038095Y-123097676D02*
X154085714Y-123192914D01*
X154085714Y-123192914D02*
X154133333Y-123383390D01*
X154133333Y-123383390D02*
X154133333Y-123526247D01*
X154133333Y-123526247D02*
X154085714Y-123716723D01*
X154085714Y-123716723D02*
X154038095Y-123811961D01*
X154038095Y-123811961D02*
X153942857Y-123907200D01*
X153942857Y-123907200D02*
X153800000Y-123954819D01*
X153800000Y-123954819D02*
X153561905Y-123954819D01*
X155085714Y-123954819D02*
X154514286Y-123954819D01*
X154800000Y-123954819D02*
X154800000Y-122954819D01*
X154800000Y-122954819D02*
X154704762Y-123097676D01*
X154704762Y-123097676D02*
X154609524Y-123192914D01*
X154609524Y-123192914D02*
X154514286Y-123240533D01*
X155739405Y-125069104D02*
X156215595Y-125069104D01*
X155644167Y-125354819D02*
X155977500Y-124354819D01*
X155977500Y-124354819D02*
X156310833Y-125354819D01*
X164454819Y-132633333D02*
X165169104Y-132633333D01*
X165169104Y-132633333D02*
X165311961Y-132680952D01*
X165311961Y-132680952D02*
X165407200Y-132776190D01*
X165407200Y-132776190D02*
X165454819Y-132919047D01*
X165454819Y-132919047D02*
X165454819Y-133014285D01*
X165454819Y-131633333D02*
X165454819Y-132204761D01*
X165454819Y-131919047D02*
X164454819Y-131919047D01*
X164454819Y-131919047D02*
X164597676Y-132014285D01*
X164597676Y-132014285D02*
X164692914Y-132109523D01*
X164692914Y-132109523D02*
X164740533Y-132204761D01*
X143354819Y-123561904D02*
X144164342Y-123561904D01*
X144164342Y-123561904D02*
X144259580Y-123514285D01*
X144259580Y-123514285D02*
X144307200Y-123466666D01*
X144307200Y-123466666D02*
X144354819Y-123371428D01*
X144354819Y-123371428D02*
X144354819Y-123180952D01*
X144354819Y-123180952D02*
X144307200Y-123085714D01*
X144307200Y-123085714D02*
X144259580Y-123038095D01*
X144259580Y-123038095D02*
X144164342Y-122990476D01*
X144164342Y-122990476D02*
X143354819Y-122990476D01*
X143354819Y-122609523D02*
X143354819Y-121942857D01*
X143354819Y-121942857D02*
X144354819Y-122371428D01*
X140519819Y-112986904D02*
X141329342Y-112986904D01*
X141329342Y-112986904D02*
X141424580Y-112939285D01*
X141424580Y-112939285D02*
X141472200Y-112891666D01*
X141472200Y-112891666D02*
X141519819Y-112796428D01*
X141519819Y-112796428D02*
X141519819Y-112605952D01*
X141519819Y-112605952D02*
X141472200Y-112510714D01*
X141472200Y-112510714D02*
X141424580Y-112463095D01*
X141424580Y-112463095D02*
X141329342Y-112415476D01*
X141329342Y-112415476D02*
X140519819Y-112415476D01*
X140853152Y-111510714D02*
X141519819Y-111510714D01*
X140472200Y-111748809D02*
X141186485Y-111986904D01*
X141186485Y-111986904D02*
X141186485Y-111367857D01*
X173954819Y-136261904D02*
X174764342Y-136261904D01*
X174764342Y-136261904D02*
X174859580Y-136214285D01*
X174859580Y-136214285D02*
X174907200Y-136166666D01*
X174907200Y-136166666D02*
X174954819Y-136071428D01*
X174954819Y-136071428D02*
X174954819Y-135880952D01*
X174954819Y-135880952D02*
X174907200Y-135785714D01*
X174907200Y-135785714D02*
X174859580Y-135738095D01*
X174859580Y-135738095D02*
X174764342Y-135690476D01*
X174764342Y-135690476D02*
X173954819Y-135690476D01*
X173954819Y-135309523D02*
X173954819Y-134690476D01*
X173954819Y-134690476D02*
X174335771Y-135023809D01*
X174335771Y-135023809D02*
X174335771Y-134880952D01*
X174335771Y-134880952D02*
X174383390Y-134785714D01*
X174383390Y-134785714D02*
X174431009Y-134738095D01*
X174431009Y-134738095D02*
X174526247Y-134690476D01*
X174526247Y-134690476D02*
X174764342Y-134690476D01*
X174764342Y-134690476D02*
X174859580Y-134738095D01*
X174859580Y-134738095D02*
X174907200Y-134785714D01*
X174907200Y-134785714D02*
X174954819Y-134880952D01*
X174954819Y-134880952D02*
X174954819Y-135166666D01*
X174954819Y-135166666D02*
X174907200Y-135261904D01*
X174907200Y-135261904D02*
X174859580Y-135309523D01*
X126654819Y-143561904D02*
X127464342Y-143561904D01*
X127464342Y-143561904D02*
X127559580Y-143514285D01*
X127559580Y-143514285D02*
X127607200Y-143466666D01*
X127607200Y-143466666D02*
X127654819Y-143371428D01*
X127654819Y-143371428D02*
X127654819Y-143180952D01*
X127654819Y-143180952D02*
X127607200Y-143085714D01*
X127607200Y-143085714D02*
X127559580Y-143038095D01*
X127559580Y-143038095D02*
X127464342Y-142990476D01*
X127464342Y-142990476D02*
X126654819Y-142990476D01*
X126750057Y-142561904D02*
X126702438Y-142514285D01*
X126702438Y-142514285D02*
X126654819Y-142419047D01*
X126654819Y-142419047D02*
X126654819Y-142180952D01*
X126654819Y-142180952D02*
X126702438Y-142085714D01*
X126702438Y-142085714D02*
X126750057Y-142038095D01*
X126750057Y-142038095D02*
X126845295Y-141990476D01*
X126845295Y-141990476D02*
X126940533Y-141990476D01*
X126940533Y-141990476D02*
X127083390Y-142038095D01*
X127083390Y-142038095D02*
X127654819Y-142609523D01*
X127654819Y-142609523D02*
X127654819Y-141990476D01*
X158338095Y-116254819D02*
X158338095Y-117064342D01*
X158338095Y-117064342D02*
X158385714Y-117159580D01*
X158385714Y-117159580D02*
X158433333Y-117207200D01*
X158433333Y-117207200D02*
X158528571Y-117254819D01*
X158528571Y-117254819D02*
X158719047Y-117254819D01*
X158719047Y-117254819D02*
X158814285Y-117207200D01*
X158814285Y-117207200D02*
X158861904Y-117159580D01*
X158861904Y-117159580D02*
X158909523Y-117064342D01*
X158909523Y-117064342D02*
X158909523Y-116254819D01*
X159909523Y-117254819D02*
X159338095Y-117254819D01*
X159623809Y-117254819D02*
X159623809Y-116254819D01*
X159623809Y-116254819D02*
X159528571Y-116397676D01*
X159528571Y-116397676D02*
X159433333Y-116492914D01*
X159433333Y-116492914D02*
X159338095Y-116540533D01*
X142957142Y-128554819D02*
X142623809Y-128078628D01*
X142385714Y-128554819D02*
X142385714Y-127554819D01*
X142385714Y-127554819D02*
X142766666Y-127554819D01*
X142766666Y-127554819D02*
X142861904Y-127602438D01*
X142861904Y-127602438D02*
X142909523Y-127650057D01*
X142909523Y-127650057D02*
X142957142Y-127745295D01*
X142957142Y-127745295D02*
X142957142Y-127888152D01*
X142957142Y-127888152D02*
X142909523Y-127983390D01*
X142909523Y-127983390D02*
X142861904Y-128031009D01*
X142861904Y-128031009D02*
X142766666Y-128078628D01*
X142766666Y-128078628D02*
X142385714Y-128078628D01*
X143338095Y-127650057D02*
X143385714Y-127602438D01*
X143385714Y-127602438D02*
X143480952Y-127554819D01*
X143480952Y-127554819D02*
X143719047Y-127554819D01*
X143719047Y-127554819D02*
X143814285Y-127602438D01*
X143814285Y-127602438D02*
X143861904Y-127650057D01*
X143861904Y-127650057D02*
X143909523Y-127745295D01*
X143909523Y-127745295D02*
X143909523Y-127840533D01*
X143909523Y-127840533D02*
X143861904Y-127983390D01*
X143861904Y-127983390D02*
X143290476Y-128554819D01*
X143290476Y-128554819D02*
X143909523Y-128554819D01*
X144242857Y-127554819D02*
X144861904Y-127554819D01*
X144861904Y-127554819D02*
X144528571Y-127935771D01*
X144528571Y-127935771D02*
X144671428Y-127935771D01*
X144671428Y-127935771D02*
X144766666Y-127983390D01*
X144766666Y-127983390D02*
X144814285Y-128031009D01*
X144814285Y-128031009D02*
X144861904Y-128126247D01*
X144861904Y-128126247D02*
X144861904Y-128364342D01*
X144861904Y-128364342D02*
X144814285Y-128459580D01*
X144814285Y-128459580D02*
X144766666Y-128507200D01*
X144766666Y-128507200D02*
X144671428Y-128554819D01*
X144671428Y-128554819D02*
X144385714Y-128554819D01*
X144385714Y-128554819D02*
X144290476Y-128507200D01*
X144290476Y-128507200D02*
X144242857Y-128459580D01*
X147554819Y-118642857D02*
X147078628Y-118976190D01*
X147554819Y-119214285D02*
X146554819Y-119214285D01*
X146554819Y-119214285D02*
X146554819Y-118833333D01*
X146554819Y-118833333D02*
X146602438Y-118738095D01*
X146602438Y-118738095D02*
X146650057Y-118690476D01*
X146650057Y-118690476D02*
X146745295Y-118642857D01*
X146745295Y-118642857D02*
X146888152Y-118642857D01*
X146888152Y-118642857D02*
X146983390Y-118690476D01*
X146983390Y-118690476D02*
X147031009Y-118738095D01*
X147031009Y-118738095D02*
X147078628Y-118833333D01*
X147078628Y-118833333D02*
X147078628Y-119214285D01*
X146650057Y-118261904D02*
X146602438Y-118214285D01*
X146602438Y-118214285D02*
X146554819Y-118119047D01*
X146554819Y-118119047D02*
X146554819Y-117880952D01*
X146554819Y-117880952D02*
X146602438Y-117785714D01*
X146602438Y-117785714D02*
X146650057Y-117738095D01*
X146650057Y-117738095D02*
X146745295Y-117690476D01*
X146745295Y-117690476D02*
X146840533Y-117690476D01*
X146840533Y-117690476D02*
X146983390Y-117738095D01*
X146983390Y-117738095D02*
X147554819Y-118309523D01*
X147554819Y-118309523D02*
X147554819Y-117690476D01*
X146650057Y-117309523D02*
X146602438Y-117261904D01*
X146602438Y-117261904D02*
X146554819Y-117166666D01*
X146554819Y-117166666D02*
X146554819Y-116928571D01*
X146554819Y-116928571D02*
X146602438Y-116833333D01*
X146602438Y-116833333D02*
X146650057Y-116785714D01*
X146650057Y-116785714D02*
X146745295Y-116738095D01*
X146745295Y-116738095D02*
X146840533Y-116738095D01*
X146840533Y-116738095D02*
X146983390Y-116785714D01*
X146983390Y-116785714D02*
X147554819Y-117357142D01*
X147554819Y-117357142D02*
X147554819Y-116738095D01*
X138557142Y-107954819D02*
X138223809Y-107478628D01*
X137985714Y-107954819D02*
X137985714Y-106954819D01*
X137985714Y-106954819D02*
X138366666Y-106954819D01*
X138366666Y-106954819D02*
X138461904Y-107002438D01*
X138461904Y-107002438D02*
X138509523Y-107050057D01*
X138509523Y-107050057D02*
X138557142Y-107145295D01*
X138557142Y-107145295D02*
X138557142Y-107288152D01*
X138557142Y-107288152D02*
X138509523Y-107383390D01*
X138509523Y-107383390D02*
X138461904Y-107431009D01*
X138461904Y-107431009D02*
X138366666Y-107478628D01*
X138366666Y-107478628D02*
X137985714Y-107478628D01*
X138938095Y-107050057D02*
X138985714Y-107002438D01*
X138985714Y-107002438D02*
X139080952Y-106954819D01*
X139080952Y-106954819D02*
X139319047Y-106954819D01*
X139319047Y-106954819D02*
X139414285Y-107002438D01*
X139414285Y-107002438D02*
X139461904Y-107050057D01*
X139461904Y-107050057D02*
X139509523Y-107145295D01*
X139509523Y-107145295D02*
X139509523Y-107240533D01*
X139509523Y-107240533D02*
X139461904Y-107383390D01*
X139461904Y-107383390D02*
X138890476Y-107954819D01*
X138890476Y-107954819D02*
X139509523Y-107954819D01*
X140461904Y-107954819D02*
X139890476Y-107954819D01*
X140176190Y-107954819D02*
X140176190Y-106954819D01*
X140176190Y-106954819D02*
X140080952Y-107097676D01*
X140080952Y-107097676D02*
X139985714Y-107192914D01*
X139985714Y-107192914D02*
X139890476Y-107240533D01*
X138357142Y-121854819D02*
X138023809Y-121378628D01*
X137785714Y-121854819D02*
X137785714Y-120854819D01*
X137785714Y-120854819D02*
X138166666Y-120854819D01*
X138166666Y-120854819D02*
X138261904Y-120902438D01*
X138261904Y-120902438D02*
X138309523Y-120950057D01*
X138309523Y-120950057D02*
X138357142Y-121045295D01*
X138357142Y-121045295D02*
X138357142Y-121188152D01*
X138357142Y-121188152D02*
X138309523Y-121283390D01*
X138309523Y-121283390D02*
X138261904Y-121331009D01*
X138261904Y-121331009D02*
X138166666Y-121378628D01*
X138166666Y-121378628D02*
X137785714Y-121378628D01*
X138738095Y-120950057D02*
X138785714Y-120902438D01*
X138785714Y-120902438D02*
X138880952Y-120854819D01*
X138880952Y-120854819D02*
X139119047Y-120854819D01*
X139119047Y-120854819D02*
X139214285Y-120902438D01*
X139214285Y-120902438D02*
X139261904Y-120950057D01*
X139261904Y-120950057D02*
X139309523Y-121045295D01*
X139309523Y-121045295D02*
X139309523Y-121140533D01*
X139309523Y-121140533D02*
X139261904Y-121283390D01*
X139261904Y-121283390D02*
X138690476Y-121854819D01*
X138690476Y-121854819D02*
X139309523Y-121854819D01*
X139928571Y-120854819D02*
X140023809Y-120854819D01*
X140023809Y-120854819D02*
X140119047Y-120902438D01*
X140119047Y-120902438D02*
X140166666Y-120950057D01*
X140166666Y-120950057D02*
X140214285Y-121045295D01*
X140214285Y-121045295D02*
X140261904Y-121235771D01*
X140261904Y-121235771D02*
X140261904Y-121473866D01*
X140261904Y-121473866D02*
X140214285Y-121664342D01*
X140214285Y-121664342D02*
X140166666Y-121759580D01*
X140166666Y-121759580D02*
X140119047Y-121807200D01*
X140119047Y-121807200D02*
X140023809Y-121854819D01*
X140023809Y-121854819D02*
X139928571Y-121854819D01*
X139928571Y-121854819D02*
X139833333Y-121807200D01*
X139833333Y-121807200D02*
X139785714Y-121759580D01*
X139785714Y-121759580D02*
X139738095Y-121664342D01*
X139738095Y-121664342D02*
X139690476Y-121473866D01*
X139690476Y-121473866D02*
X139690476Y-121235771D01*
X139690476Y-121235771D02*
X139738095Y-121045295D01*
X139738095Y-121045295D02*
X139785714Y-120950057D01*
X139785714Y-120950057D02*
X139833333Y-120902438D01*
X139833333Y-120902438D02*
X139928571Y-120854819D01*
X138257142Y-120554819D02*
X137923809Y-120078628D01*
X137685714Y-120554819D02*
X137685714Y-119554819D01*
X137685714Y-119554819D02*
X138066666Y-119554819D01*
X138066666Y-119554819D02*
X138161904Y-119602438D01*
X138161904Y-119602438D02*
X138209523Y-119650057D01*
X138209523Y-119650057D02*
X138257142Y-119745295D01*
X138257142Y-119745295D02*
X138257142Y-119888152D01*
X138257142Y-119888152D02*
X138209523Y-119983390D01*
X138209523Y-119983390D02*
X138161904Y-120031009D01*
X138161904Y-120031009D02*
X138066666Y-120078628D01*
X138066666Y-120078628D02*
X137685714Y-120078628D01*
X139209523Y-120554819D02*
X138638095Y-120554819D01*
X138923809Y-120554819D02*
X138923809Y-119554819D01*
X138923809Y-119554819D02*
X138828571Y-119697676D01*
X138828571Y-119697676D02*
X138733333Y-119792914D01*
X138733333Y-119792914D02*
X138638095Y-119840533D01*
X139685714Y-120554819D02*
X139876190Y-120554819D01*
X139876190Y-120554819D02*
X139971428Y-120507200D01*
X139971428Y-120507200D02*
X140019047Y-120459580D01*
X140019047Y-120459580D02*
X140114285Y-120316723D01*
X140114285Y-120316723D02*
X140161904Y-120126247D01*
X140161904Y-120126247D02*
X140161904Y-119745295D01*
X140161904Y-119745295D02*
X140114285Y-119650057D01*
X140114285Y-119650057D02*
X140066666Y-119602438D01*
X140066666Y-119602438D02*
X139971428Y-119554819D01*
X139971428Y-119554819D02*
X139780952Y-119554819D01*
X139780952Y-119554819D02*
X139685714Y-119602438D01*
X139685714Y-119602438D02*
X139638095Y-119650057D01*
X139638095Y-119650057D02*
X139590476Y-119745295D01*
X139590476Y-119745295D02*
X139590476Y-119983390D01*
X139590476Y-119983390D02*
X139638095Y-120078628D01*
X139638095Y-120078628D02*
X139685714Y-120126247D01*
X139685714Y-120126247D02*
X139780952Y-120173866D01*
X139780952Y-120173866D02*
X139971428Y-120173866D01*
X139971428Y-120173866D02*
X140066666Y-120126247D01*
X140066666Y-120126247D02*
X140114285Y-120078628D01*
X140114285Y-120078628D02*
X140161904Y-119983390D01*
X149857142Y-106254819D02*
X149523809Y-105778628D01*
X149285714Y-106254819D02*
X149285714Y-105254819D01*
X149285714Y-105254819D02*
X149666666Y-105254819D01*
X149666666Y-105254819D02*
X149761904Y-105302438D01*
X149761904Y-105302438D02*
X149809523Y-105350057D01*
X149809523Y-105350057D02*
X149857142Y-105445295D01*
X149857142Y-105445295D02*
X149857142Y-105588152D01*
X149857142Y-105588152D02*
X149809523Y-105683390D01*
X149809523Y-105683390D02*
X149761904Y-105731009D01*
X149761904Y-105731009D02*
X149666666Y-105778628D01*
X149666666Y-105778628D02*
X149285714Y-105778628D01*
X150809523Y-106254819D02*
X150238095Y-106254819D01*
X150523809Y-106254819D02*
X150523809Y-105254819D01*
X150523809Y-105254819D02*
X150428571Y-105397676D01*
X150428571Y-105397676D02*
X150333333Y-105492914D01*
X150333333Y-105492914D02*
X150238095Y-105540533D01*
X151380952Y-105683390D02*
X151285714Y-105635771D01*
X151285714Y-105635771D02*
X151238095Y-105588152D01*
X151238095Y-105588152D02*
X151190476Y-105492914D01*
X151190476Y-105492914D02*
X151190476Y-105445295D01*
X151190476Y-105445295D02*
X151238095Y-105350057D01*
X151238095Y-105350057D02*
X151285714Y-105302438D01*
X151285714Y-105302438D02*
X151380952Y-105254819D01*
X151380952Y-105254819D02*
X151571428Y-105254819D01*
X151571428Y-105254819D02*
X151666666Y-105302438D01*
X151666666Y-105302438D02*
X151714285Y-105350057D01*
X151714285Y-105350057D02*
X151761904Y-105445295D01*
X151761904Y-105445295D02*
X151761904Y-105492914D01*
X151761904Y-105492914D02*
X151714285Y-105588152D01*
X151714285Y-105588152D02*
X151666666Y-105635771D01*
X151666666Y-105635771D02*
X151571428Y-105683390D01*
X151571428Y-105683390D02*
X151380952Y-105683390D01*
X151380952Y-105683390D02*
X151285714Y-105731009D01*
X151285714Y-105731009D02*
X151238095Y-105778628D01*
X151238095Y-105778628D02*
X151190476Y-105873866D01*
X151190476Y-105873866D02*
X151190476Y-106064342D01*
X151190476Y-106064342D02*
X151238095Y-106159580D01*
X151238095Y-106159580D02*
X151285714Y-106207200D01*
X151285714Y-106207200D02*
X151380952Y-106254819D01*
X151380952Y-106254819D02*
X151571428Y-106254819D01*
X151571428Y-106254819D02*
X151666666Y-106207200D01*
X151666666Y-106207200D02*
X151714285Y-106159580D01*
X151714285Y-106159580D02*
X151761904Y-106064342D01*
X151761904Y-106064342D02*
X151761904Y-105873866D01*
X151761904Y-105873866D02*
X151714285Y-105778628D01*
X151714285Y-105778628D02*
X151666666Y-105731009D01*
X151666666Y-105731009D02*
X151571428Y-105683390D01*
X150157142Y-108054819D02*
X149823809Y-107578628D01*
X149585714Y-108054819D02*
X149585714Y-107054819D01*
X149585714Y-107054819D02*
X149966666Y-107054819D01*
X149966666Y-107054819D02*
X150061904Y-107102438D01*
X150061904Y-107102438D02*
X150109523Y-107150057D01*
X150109523Y-107150057D02*
X150157142Y-107245295D01*
X150157142Y-107245295D02*
X150157142Y-107388152D01*
X150157142Y-107388152D02*
X150109523Y-107483390D01*
X150109523Y-107483390D02*
X150061904Y-107531009D01*
X150061904Y-107531009D02*
X149966666Y-107578628D01*
X149966666Y-107578628D02*
X149585714Y-107578628D01*
X151109523Y-108054819D02*
X150538095Y-108054819D01*
X150823809Y-108054819D02*
X150823809Y-107054819D01*
X150823809Y-107054819D02*
X150728571Y-107197676D01*
X150728571Y-107197676D02*
X150633333Y-107292914D01*
X150633333Y-107292914D02*
X150538095Y-107340533D01*
X151442857Y-107054819D02*
X152109523Y-107054819D01*
X152109523Y-107054819D02*
X151680952Y-108054819D01*
X158954819Y-127942857D02*
X158478628Y-128276190D01*
X158954819Y-128514285D02*
X157954819Y-128514285D01*
X157954819Y-128514285D02*
X157954819Y-128133333D01*
X157954819Y-128133333D02*
X158002438Y-128038095D01*
X158002438Y-128038095D02*
X158050057Y-127990476D01*
X158050057Y-127990476D02*
X158145295Y-127942857D01*
X158145295Y-127942857D02*
X158288152Y-127942857D01*
X158288152Y-127942857D02*
X158383390Y-127990476D01*
X158383390Y-127990476D02*
X158431009Y-128038095D01*
X158431009Y-128038095D02*
X158478628Y-128133333D01*
X158478628Y-128133333D02*
X158478628Y-128514285D01*
X158954819Y-126990476D02*
X158954819Y-127561904D01*
X158954819Y-127276190D02*
X157954819Y-127276190D01*
X157954819Y-127276190D02*
X158097676Y-127371428D01*
X158097676Y-127371428D02*
X158192914Y-127466666D01*
X158192914Y-127466666D02*
X158240533Y-127561904D01*
X157954819Y-126133333D02*
X157954819Y-126323809D01*
X157954819Y-126323809D02*
X158002438Y-126419047D01*
X158002438Y-126419047D02*
X158050057Y-126466666D01*
X158050057Y-126466666D02*
X158192914Y-126561904D01*
X158192914Y-126561904D02*
X158383390Y-126609523D01*
X158383390Y-126609523D02*
X158764342Y-126609523D01*
X158764342Y-126609523D02*
X158859580Y-126561904D01*
X158859580Y-126561904D02*
X158907200Y-126514285D01*
X158907200Y-126514285D02*
X158954819Y-126419047D01*
X158954819Y-126419047D02*
X158954819Y-126228571D01*
X158954819Y-126228571D02*
X158907200Y-126133333D01*
X158907200Y-126133333D02*
X158859580Y-126085714D01*
X158859580Y-126085714D02*
X158764342Y-126038095D01*
X158764342Y-126038095D02*
X158526247Y-126038095D01*
X158526247Y-126038095D02*
X158431009Y-126085714D01*
X158431009Y-126085714D02*
X158383390Y-126133333D01*
X158383390Y-126133333D02*
X158335771Y-126228571D01*
X158335771Y-126228571D02*
X158335771Y-126419047D01*
X158335771Y-126419047D02*
X158383390Y-126514285D01*
X158383390Y-126514285D02*
X158431009Y-126561904D01*
X158431009Y-126561904D02*
X158526247Y-126609523D01*
X151354819Y-132142857D02*
X150878628Y-132476190D01*
X151354819Y-132714285D02*
X150354819Y-132714285D01*
X150354819Y-132714285D02*
X150354819Y-132333333D01*
X150354819Y-132333333D02*
X150402438Y-132238095D01*
X150402438Y-132238095D02*
X150450057Y-132190476D01*
X150450057Y-132190476D02*
X150545295Y-132142857D01*
X150545295Y-132142857D02*
X150688152Y-132142857D01*
X150688152Y-132142857D02*
X150783390Y-132190476D01*
X150783390Y-132190476D02*
X150831009Y-132238095D01*
X150831009Y-132238095D02*
X150878628Y-132333333D01*
X150878628Y-132333333D02*
X150878628Y-132714285D01*
X151354819Y-131190476D02*
X151354819Y-131761904D01*
X151354819Y-131476190D02*
X150354819Y-131476190D01*
X150354819Y-131476190D02*
X150497676Y-131571428D01*
X150497676Y-131571428D02*
X150592914Y-131666666D01*
X150592914Y-131666666D02*
X150640533Y-131761904D01*
X151354819Y-130238095D02*
X151354819Y-130809523D01*
X151354819Y-130523809D02*
X150354819Y-130523809D01*
X150354819Y-130523809D02*
X150497676Y-130619047D01*
X150497676Y-130619047D02*
X150592914Y-130714285D01*
X150592914Y-130714285D02*
X150640533Y-130809523D01*
X149122319Y-128817857D02*
X148646128Y-129151190D01*
X149122319Y-129389285D02*
X148122319Y-129389285D01*
X148122319Y-129389285D02*
X148122319Y-129008333D01*
X148122319Y-129008333D02*
X148169938Y-128913095D01*
X148169938Y-128913095D02*
X148217557Y-128865476D01*
X148217557Y-128865476D02*
X148312795Y-128817857D01*
X148312795Y-128817857D02*
X148455652Y-128817857D01*
X148455652Y-128817857D02*
X148550890Y-128865476D01*
X148550890Y-128865476D02*
X148598509Y-128913095D01*
X148598509Y-128913095D02*
X148646128Y-129008333D01*
X148646128Y-129008333D02*
X148646128Y-129389285D01*
X149122319Y-127865476D02*
X149122319Y-128436904D01*
X149122319Y-128151190D02*
X148122319Y-128151190D01*
X148122319Y-128151190D02*
X148265176Y-128246428D01*
X148265176Y-128246428D02*
X148360414Y-128341666D01*
X148360414Y-128341666D02*
X148408033Y-128436904D01*
X148122319Y-127246428D02*
X148122319Y-127151190D01*
X148122319Y-127151190D02*
X148169938Y-127055952D01*
X148169938Y-127055952D02*
X148217557Y-127008333D01*
X148217557Y-127008333D02*
X148312795Y-126960714D01*
X148312795Y-126960714D02*
X148503271Y-126913095D01*
X148503271Y-126913095D02*
X148741366Y-126913095D01*
X148741366Y-126913095D02*
X148931842Y-126960714D01*
X148931842Y-126960714D02*
X149027080Y-127008333D01*
X149027080Y-127008333D02*
X149074700Y-127055952D01*
X149074700Y-127055952D02*
X149122319Y-127151190D01*
X149122319Y-127151190D02*
X149122319Y-127246428D01*
X149122319Y-127246428D02*
X149074700Y-127341666D01*
X149074700Y-127341666D02*
X149027080Y-127389285D01*
X149027080Y-127389285D02*
X148931842Y-127436904D01*
X148931842Y-127436904D02*
X148741366Y-127484523D01*
X148741366Y-127484523D02*
X148503271Y-127484523D01*
X148503271Y-127484523D02*
X148312795Y-127436904D01*
X148312795Y-127436904D02*
X148217557Y-127389285D01*
X148217557Y-127389285D02*
X148169938Y-127341666D01*
X148169938Y-127341666D02*
X148122319Y-127246428D01*
X148854819Y-130966666D02*
X148378628Y-131299999D01*
X148854819Y-131538094D02*
X147854819Y-131538094D01*
X147854819Y-131538094D02*
X147854819Y-131157142D01*
X147854819Y-131157142D02*
X147902438Y-131061904D01*
X147902438Y-131061904D02*
X147950057Y-131014285D01*
X147950057Y-131014285D02*
X148045295Y-130966666D01*
X148045295Y-130966666D02*
X148188152Y-130966666D01*
X148188152Y-130966666D02*
X148283390Y-131014285D01*
X148283390Y-131014285D02*
X148331009Y-131061904D01*
X148331009Y-131061904D02*
X148378628Y-131157142D01*
X148378628Y-131157142D02*
X148378628Y-131538094D01*
X148854819Y-130490475D02*
X148854819Y-130299999D01*
X148854819Y-130299999D02*
X148807200Y-130204761D01*
X148807200Y-130204761D02*
X148759580Y-130157142D01*
X148759580Y-130157142D02*
X148616723Y-130061904D01*
X148616723Y-130061904D02*
X148426247Y-130014285D01*
X148426247Y-130014285D02*
X148045295Y-130014285D01*
X148045295Y-130014285D02*
X147950057Y-130061904D01*
X147950057Y-130061904D02*
X147902438Y-130109523D01*
X147902438Y-130109523D02*
X147854819Y-130204761D01*
X147854819Y-130204761D02*
X147854819Y-130395237D01*
X147854819Y-130395237D02*
X147902438Y-130490475D01*
X147902438Y-130490475D02*
X147950057Y-130538094D01*
X147950057Y-130538094D02*
X148045295Y-130585713D01*
X148045295Y-130585713D02*
X148283390Y-130585713D01*
X148283390Y-130585713D02*
X148378628Y-130538094D01*
X148378628Y-130538094D02*
X148426247Y-130490475D01*
X148426247Y-130490475D02*
X148473866Y-130395237D01*
X148473866Y-130395237D02*
X148473866Y-130204761D01*
X148473866Y-130204761D02*
X148426247Y-130109523D01*
X148426247Y-130109523D02*
X148378628Y-130061904D01*
X148378628Y-130061904D02*
X148283390Y-130014285D01*
X139833333Y-106354819D02*
X139500000Y-105878628D01*
X139261905Y-106354819D02*
X139261905Y-105354819D01*
X139261905Y-105354819D02*
X139642857Y-105354819D01*
X139642857Y-105354819D02*
X139738095Y-105402438D01*
X139738095Y-105402438D02*
X139785714Y-105450057D01*
X139785714Y-105450057D02*
X139833333Y-105545295D01*
X139833333Y-105545295D02*
X139833333Y-105688152D01*
X139833333Y-105688152D02*
X139785714Y-105783390D01*
X139785714Y-105783390D02*
X139738095Y-105831009D01*
X139738095Y-105831009D02*
X139642857Y-105878628D01*
X139642857Y-105878628D02*
X139261905Y-105878628D01*
X140404762Y-105783390D02*
X140309524Y-105735771D01*
X140309524Y-105735771D02*
X140261905Y-105688152D01*
X140261905Y-105688152D02*
X140214286Y-105592914D01*
X140214286Y-105592914D02*
X140214286Y-105545295D01*
X140214286Y-105545295D02*
X140261905Y-105450057D01*
X140261905Y-105450057D02*
X140309524Y-105402438D01*
X140309524Y-105402438D02*
X140404762Y-105354819D01*
X140404762Y-105354819D02*
X140595238Y-105354819D01*
X140595238Y-105354819D02*
X140690476Y-105402438D01*
X140690476Y-105402438D02*
X140738095Y-105450057D01*
X140738095Y-105450057D02*
X140785714Y-105545295D01*
X140785714Y-105545295D02*
X140785714Y-105592914D01*
X140785714Y-105592914D02*
X140738095Y-105688152D01*
X140738095Y-105688152D02*
X140690476Y-105735771D01*
X140690476Y-105735771D02*
X140595238Y-105783390D01*
X140595238Y-105783390D02*
X140404762Y-105783390D01*
X140404762Y-105783390D02*
X140309524Y-105831009D01*
X140309524Y-105831009D02*
X140261905Y-105878628D01*
X140261905Y-105878628D02*
X140214286Y-105973866D01*
X140214286Y-105973866D02*
X140214286Y-106164342D01*
X140214286Y-106164342D02*
X140261905Y-106259580D01*
X140261905Y-106259580D02*
X140309524Y-106307200D01*
X140309524Y-106307200D02*
X140404762Y-106354819D01*
X140404762Y-106354819D02*
X140595238Y-106354819D01*
X140595238Y-106354819D02*
X140690476Y-106307200D01*
X140690476Y-106307200D02*
X140738095Y-106259580D01*
X140738095Y-106259580D02*
X140785714Y-106164342D01*
X140785714Y-106164342D02*
X140785714Y-105973866D01*
X140785714Y-105973866D02*
X140738095Y-105878628D01*
X140738095Y-105878628D02*
X140690476Y-105831009D01*
X140690476Y-105831009D02*
X140595238Y-105783390D01*
X139233333Y-123154819D02*
X138900000Y-122678628D01*
X138661905Y-123154819D02*
X138661905Y-122154819D01*
X138661905Y-122154819D02*
X139042857Y-122154819D01*
X139042857Y-122154819D02*
X139138095Y-122202438D01*
X139138095Y-122202438D02*
X139185714Y-122250057D01*
X139185714Y-122250057D02*
X139233333Y-122345295D01*
X139233333Y-122345295D02*
X139233333Y-122488152D01*
X139233333Y-122488152D02*
X139185714Y-122583390D01*
X139185714Y-122583390D02*
X139138095Y-122631009D01*
X139138095Y-122631009D02*
X139042857Y-122678628D01*
X139042857Y-122678628D02*
X138661905Y-122678628D01*
X139566667Y-122154819D02*
X140233333Y-122154819D01*
X140233333Y-122154819D02*
X139804762Y-123154819D01*
X144133333Y-118654819D02*
X143800000Y-118178628D01*
X143561905Y-118654819D02*
X143561905Y-117654819D01*
X143561905Y-117654819D02*
X143942857Y-117654819D01*
X143942857Y-117654819D02*
X144038095Y-117702438D01*
X144038095Y-117702438D02*
X144085714Y-117750057D01*
X144085714Y-117750057D02*
X144133333Y-117845295D01*
X144133333Y-117845295D02*
X144133333Y-117988152D01*
X144133333Y-117988152D02*
X144085714Y-118083390D01*
X144085714Y-118083390D02*
X144038095Y-118131009D01*
X144038095Y-118131009D02*
X143942857Y-118178628D01*
X143942857Y-118178628D02*
X143561905Y-118178628D01*
X144990476Y-117654819D02*
X144800000Y-117654819D01*
X144800000Y-117654819D02*
X144704762Y-117702438D01*
X144704762Y-117702438D02*
X144657143Y-117750057D01*
X144657143Y-117750057D02*
X144561905Y-117892914D01*
X144561905Y-117892914D02*
X144514286Y-118083390D01*
X144514286Y-118083390D02*
X144514286Y-118464342D01*
X144514286Y-118464342D02*
X144561905Y-118559580D01*
X144561905Y-118559580D02*
X144609524Y-118607200D01*
X144609524Y-118607200D02*
X144704762Y-118654819D01*
X144704762Y-118654819D02*
X144895238Y-118654819D01*
X144895238Y-118654819D02*
X144990476Y-118607200D01*
X144990476Y-118607200D02*
X145038095Y-118559580D01*
X145038095Y-118559580D02*
X145085714Y-118464342D01*
X145085714Y-118464342D02*
X145085714Y-118226247D01*
X145085714Y-118226247D02*
X145038095Y-118131009D01*
X145038095Y-118131009D02*
X144990476Y-118083390D01*
X144990476Y-118083390D02*
X144895238Y-118035771D01*
X144895238Y-118035771D02*
X144704762Y-118035771D01*
X144704762Y-118035771D02*
X144609524Y-118083390D01*
X144609524Y-118083390D02*
X144561905Y-118131009D01*
X144561905Y-118131009D02*
X144514286Y-118226247D01*
X164284819Y-121616666D02*
X163808628Y-121949999D01*
X164284819Y-122188094D02*
X163284819Y-122188094D01*
X163284819Y-122188094D02*
X163284819Y-121807142D01*
X163284819Y-121807142D02*
X163332438Y-121711904D01*
X163332438Y-121711904D02*
X163380057Y-121664285D01*
X163380057Y-121664285D02*
X163475295Y-121616666D01*
X163475295Y-121616666D02*
X163618152Y-121616666D01*
X163618152Y-121616666D02*
X163713390Y-121664285D01*
X163713390Y-121664285D02*
X163761009Y-121711904D01*
X163761009Y-121711904D02*
X163808628Y-121807142D01*
X163808628Y-121807142D02*
X163808628Y-122188094D01*
X163284819Y-121283332D02*
X163284819Y-120664285D01*
X163284819Y-120664285D02*
X163665771Y-120997618D01*
X163665771Y-120997618D02*
X163665771Y-120854761D01*
X163665771Y-120854761D02*
X163713390Y-120759523D01*
X163713390Y-120759523D02*
X163761009Y-120711904D01*
X163761009Y-120711904D02*
X163856247Y-120664285D01*
X163856247Y-120664285D02*
X164094342Y-120664285D01*
X164094342Y-120664285D02*
X164189580Y-120711904D01*
X164189580Y-120711904D02*
X164237200Y-120759523D01*
X164237200Y-120759523D02*
X164284819Y-120854761D01*
X164284819Y-120854761D02*
X164284819Y-121140475D01*
X164284819Y-121140475D02*
X164237200Y-121235713D01*
X164237200Y-121235713D02*
X164189580Y-121283332D01*
X164284819Y-118566666D02*
X163808628Y-118899999D01*
X164284819Y-119138094D02*
X163284819Y-119138094D01*
X163284819Y-119138094D02*
X163284819Y-118757142D01*
X163284819Y-118757142D02*
X163332438Y-118661904D01*
X163332438Y-118661904D02*
X163380057Y-118614285D01*
X163380057Y-118614285D02*
X163475295Y-118566666D01*
X163475295Y-118566666D02*
X163618152Y-118566666D01*
X163618152Y-118566666D02*
X163713390Y-118614285D01*
X163713390Y-118614285D02*
X163761009Y-118661904D01*
X163761009Y-118661904D02*
X163808628Y-118757142D01*
X163808628Y-118757142D02*
X163808628Y-119138094D01*
X163380057Y-118185713D02*
X163332438Y-118138094D01*
X163332438Y-118138094D02*
X163284819Y-118042856D01*
X163284819Y-118042856D02*
X163284819Y-117804761D01*
X163284819Y-117804761D02*
X163332438Y-117709523D01*
X163332438Y-117709523D02*
X163380057Y-117661904D01*
X163380057Y-117661904D02*
X163475295Y-117614285D01*
X163475295Y-117614285D02*
X163570533Y-117614285D01*
X163570533Y-117614285D02*
X163713390Y-117661904D01*
X163713390Y-117661904D02*
X164284819Y-118233332D01*
X164284819Y-118233332D02*
X164284819Y-117614285D01*
X158674819Y-115466666D02*
X158198628Y-115799999D01*
X158674819Y-116038094D02*
X157674819Y-116038094D01*
X157674819Y-116038094D02*
X157674819Y-115657142D01*
X157674819Y-115657142D02*
X157722438Y-115561904D01*
X157722438Y-115561904D02*
X157770057Y-115514285D01*
X157770057Y-115514285D02*
X157865295Y-115466666D01*
X157865295Y-115466666D02*
X158008152Y-115466666D01*
X158008152Y-115466666D02*
X158103390Y-115514285D01*
X158103390Y-115514285D02*
X158151009Y-115561904D01*
X158151009Y-115561904D02*
X158198628Y-115657142D01*
X158198628Y-115657142D02*
X158198628Y-116038094D01*
X158674819Y-114514285D02*
X158674819Y-115085713D01*
X158674819Y-114799999D02*
X157674819Y-114799999D01*
X157674819Y-114799999D02*
X157817676Y-114895237D01*
X157817676Y-114895237D02*
X157912914Y-114990475D01*
X157912914Y-114990475D02*
X157960533Y-115085713D01*
X146050057Y-131595238D02*
X146002438Y-131690476D01*
X146002438Y-131690476D02*
X145907200Y-131785714D01*
X145907200Y-131785714D02*
X145764342Y-131928571D01*
X145764342Y-131928571D02*
X145716723Y-132023809D01*
X145716723Y-132023809D02*
X145716723Y-132119047D01*
X145954819Y-132071428D02*
X145907200Y-132166666D01*
X145907200Y-132166666D02*
X145811961Y-132261904D01*
X145811961Y-132261904D02*
X145621485Y-132309523D01*
X145621485Y-132309523D02*
X145288152Y-132309523D01*
X145288152Y-132309523D02*
X145097676Y-132261904D01*
X145097676Y-132261904D02*
X145002438Y-132166666D01*
X145002438Y-132166666D02*
X144954819Y-132071428D01*
X144954819Y-132071428D02*
X144954819Y-131880952D01*
X144954819Y-131880952D02*
X145002438Y-131785714D01*
X145002438Y-131785714D02*
X145097676Y-131690476D01*
X145097676Y-131690476D02*
X145288152Y-131642857D01*
X145288152Y-131642857D02*
X145621485Y-131642857D01*
X145621485Y-131642857D02*
X145811961Y-131690476D01*
X145811961Y-131690476D02*
X145907200Y-131785714D01*
X145907200Y-131785714D02*
X145954819Y-131880952D01*
X145954819Y-131880952D02*
X145954819Y-132071428D01*
X145288152Y-130785714D02*
X145954819Y-130785714D01*
X144907200Y-131023809D02*
X145621485Y-131261904D01*
X145621485Y-131261904D02*
X145621485Y-130642857D01*
X149650057Y-102695238D02*
X149602438Y-102790476D01*
X149602438Y-102790476D02*
X149507200Y-102885714D01*
X149507200Y-102885714D02*
X149364342Y-103028571D01*
X149364342Y-103028571D02*
X149316723Y-103123809D01*
X149316723Y-103123809D02*
X149316723Y-103219047D01*
X149554819Y-103171428D02*
X149507200Y-103266666D01*
X149507200Y-103266666D02*
X149411961Y-103361904D01*
X149411961Y-103361904D02*
X149221485Y-103409523D01*
X149221485Y-103409523D02*
X148888152Y-103409523D01*
X148888152Y-103409523D02*
X148697676Y-103361904D01*
X148697676Y-103361904D02*
X148602438Y-103266666D01*
X148602438Y-103266666D02*
X148554819Y-103171428D01*
X148554819Y-103171428D02*
X148554819Y-102980952D01*
X148554819Y-102980952D02*
X148602438Y-102885714D01*
X148602438Y-102885714D02*
X148697676Y-102790476D01*
X148697676Y-102790476D02*
X148888152Y-102742857D01*
X148888152Y-102742857D02*
X149221485Y-102742857D01*
X149221485Y-102742857D02*
X149411961Y-102790476D01*
X149411961Y-102790476D02*
X149507200Y-102885714D01*
X149507200Y-102885714D02*
X149554819Y-102980952D01*
X149554819Y-102980952D02*
X149554819Y-103171428D01*
X148554819Y-102409523D02*
X148554819Y-101790476D01*
X148554819Y-101790476D02*
X148935771Y-102123809D01*
X148935771Y-102123809D02*
X148935771Y-101980952D01*
X148935771Y-101980952D02*
X148983390Y-101885714D01*
X148983390Y-101885714D02*
X149031009Y-101838095D01*
X149031009Y-101838095D02*
X149126247Y-101790476D01*
X149126247Y-101790476D02*
X149364342Y-101790476D01*
X149364342Y-101790476D02*
X149459580Y-101838095D01*
X149459580Y-101838095D02*
X149507200Y-101885714D01*
X149507200Y-101885714D02*
X149554819Y-101980952D01*
X149554819Y-101980952D02*
X149554819Y-102266666D01*
X149554819Y-102266666D02*
X149507200Y-102361904D01*
X149507200Y-102361904D02*
X149459580Y-102409523D01*
X139104761Y-102850057D02*
X139009523Y-102802438D01*
X139009523Y-102802438D02*
X138914285Y-102707200D01*
X138914285Y-102707200D02*
X138771428Y-102564342D01*
X138771428Y-102564342D02*
X138676190Y-102516723D01*
X138676190Y-102516723D02*
X138580952Y-102516723D01*
X138628571Y-102754819D02*
X138533333Y-102707200D01*
X138533333Y-102707200D02*
X138438095Y-102611961D01*
X138438095Y-102611961D02*
X138390476Y-102421485D01*
X138390476Y-102421485D02*
X138390476Y-102088152D01*
X138390476Y-102088152D02*
X138438095Y-101897676D01*
X138438095Y-101897676D02*
X138533333Y-101802438D01*
X138533333Y-101802438D02*
X138628571Y-101754819D01*
X138628571Y-101754819D02*
X138819047Y-101754819D01*
X138819047Y-101754819D02*
X138914285Y-101802438D01*
X138914285Y-101802438D02*
X139009523Y-101897676D01*
X139009523Y-101897676D02*
X139057142Y-102088152D01*
X139057142Y-102088152D02*
X139057142Y-102421485D01*
X139057142Y-102421485D02*
X139009523Y-102611961D01*
X139009523Y-102611961D02*
X138914285Y-102707200D01*
X138914285Y-102707200D02*
X138819047Y-102754819D01*
X138819047Y-102754819D02*
X138628571Y-102754819D01*
X139438095Y-101850057D02*
X139485714Y-101802438D01*
X139485714Y-101802438D02*
X139580952Y-101754819D01*
X139580952Y-101754819D02*
X139819047Y-101754819D01*
X139819047Y-101754819D02*
X139914285Y-101802438D01*
X139914285Y-101802438D02*
X139961904Y-101850057D01*
X139961904Y-101850057D02*
X140009523Y-101945295D01*
X140009523Y-101945295D02*
X140009523Y-102040533D01*
X140009523Y-102040533D02*
X139961904Y-102183390D01*
X139961904Y-102183390D02*
X139390476Y-102754819D01*
X139390476Y-102754819D02*
X140009523Y-102754819D01*
X153604761Y-131450057D02*
X153509523Y-131402438D01*
X153509523Y-131402438D02*
X153414285Y-131307200D01*
X153414285Y-131307200D02*
X153271428Y-131164342D01*
X153271428Y-131164342D02*
X153176190Y-131116723D01*
X153176190Y-131116723D02*
X153080952Y-131116723D01*
X153128571Y-131354819D02*
X153033333Y-131307200D01*
X153033333Y-131307200D02*
X152938095Y-131211961D01*
X152938095Y-131211961D02*
X152890476Y-131021485D01*
X152890476Y-131021485D02*
X152890476Y-130688152D01*
X152890476Y-130688152D02*
X152938095Y-130497676D01*
X152938095Y-130497676D02*
X153033333Y-130402438D01*
X153033333Y-130402438D02*
X153128571Y-130354819D01*
X153128571Y-130354819D02*
X153319047Y-130354819D01*
X153319047Y-130354819D02*
X153414285Y-130402438D01*
X153414285Y-130402438D02*
X153509523Y-130497676D01*
X153509523Y-130497676D02*
X153557142Y-130688152D01*
X153557142Y-130688152D02*
X153557142Y-131021485D01*
X153557142Y-131021485D02*
X153509523Y-131211961D01*
X153509523Y-131211961D02*
X153414285Y-131307200D01*
X153414285Y-131307200D02*
X153319047Y-131354819D01*
X153319047Y-131354819D02*
X153128571Y-131354819D01*
X154509523Y-131354819D02*
X153938095Y-131354819D01*
X154223809Y-131354819D02*
X154223809Y-130354819D01*
X154223809Y-130354819D02*
X154128571Y-130497676D01*
X154128571Y-130497676D02*
X154033333Y-130592914D01*
X154033333Y-130592914D02*
X153938095Y-130640533D01*
X159141666Y-123654819D02*
X159141666Y-124369104D01*
X159141666Y-124369104D02*
X159094047Y-124511961D01*
X159094047Y-124511961D02*
X158998809Y-124607200D01*
X158998809Y-124607200D02*
X158855952Y-124654819D01*
X158855952Y-124654819D02*
X158760714Y-124654819D01*
X159617857Y-124654819D02*
X159617857Y-123654819D01*
X159617857Y-123654819D02*
X159998809Y-123654819D01*
X159998809Y-123654819D02*
X160094047Y-123702438D01*
X160094047Y-123702438D02*
X160141666Y-123750057D01*
X160141666Y-123750057D02*
X160189285Y-123845295D01*
X160189285Y-123845295D02*
X160189285Y-123988152D01*
X160189285Y-123988152D02*
X160141666Y-124083390D01*
X160141666Y-124083390D02*
X160094047Y-124131009D01*
X160094047Y-124131009D02*
X159998809Y-124178628D01*
X159998809Y-124178628D02*
X159617857Y-124178628D01*
X160570238Y-123750057D02*
X160617857Y-123702438D01*
X160617857Y-123702438D02*
X160713095Y-123654819D01*
X160713095Y-123654819D02*
X160951190Y-123654819D01*
X160951190Y-123654819D02*
X161046428Y-123702438D01*
X161046428Y-123702438D02*
X161094047Y-123750057D01*
X161094047Y-123750057D02*
X161141666Y-123845295D01*
X161141666Y-123845295D02*
X161141666Y-123940533D01*
X161141666Y-123940533D02*
X161094047Y-124083390D01*
X161094047Y-124083390D02*
X160522619Y-124654819D01*
X160522619Y-124654819D02*
X161141666Y-124654819D01*
X160866666Y-113054819D02*
X160866666Y-113769104D01*
X160866666Y-113769104D02*
X160819047Y-113911961D01*
X160819047Y-113911961D02*
X160723809Y-114007200D01*
X160723809Y-114007200D02*
X160580952Y-114054819D01*
X160580952Y-114054819D02*
X160485714Y-114054819D01*
X161342857Y-114054819D02*
X161342857Y-113054819D01*
X161342857Y-113054819D02*
X161723809Y-113054819D01*
X161723809Y-113054819D02*
X161819047Y-113102438D01*
X161819047Y-113102438D02*
X161866666Y-113150057D01*
X161866666Y-113150057D02*
X161914285Y-113245295D01*
X161914285Y-113245295D02*
X161914285Y-113388152D01*
X161914285Y-113388152D02*
X161866666Y-113483390D01*
X161866666Y-113483390D02*
X161819047Y-113531009D01*
X161819047Y-113531009D02*
X161723809Y-113578628D01*
X161723809Y-113578628D02*
X161342857Y-113578628D01*
X162866666Y-114054819D02*
X162295238Y-114054819D01*
X162580952Y-114054819D02*
X162580952Y-113054819D01*
X162580952Y-113054819D02*
X162485714Y-113197676D01*
X162485714Y-113197676D02*
X162390476Y-113292914D01*
X162390476Y-113292914D02*
X162295238Y-113340533D01*
X155766666Y-111154819D02*
X155766666Y-111869104D01*
X155766666Y-111869104D02*
X155719047Y-112011961D01*
X155719047Y-112011961D02*
X155623809Y-112107200D01*
X155623809Y-112107200D02*
X155480952Y-112154819D01*
X155480952Y-112154819D02*
X155385714Y-112154819D01*
X156195238Y-111250057D02*
X156242857Y-111202438D01*
X156242857Y-111202438D02*
X156338095Y-111154819D01*
X156338095Y-111154819D02*
X156576190Y-111154819D01*
X156576190Y-111154819D02*
X156671428Y-111202438D01*
X156671428Y-111202438D02*
X156719047Y-111250057D01*
X156719047Y-111250057D02*
X156766666Y-111345295D01*
X156766666Y-111345295D02*
X156766666Y-111440533D01*
X156766666Y-111440533D02*
X156719047Y-111583390D01*
X156719047Y-111583390D02*
X156147619Y-112154819D01*
X156147619Y-112154819D02*
X156766666Y-112154819D01*
X149959580Y-131842857D02*
X150007200Y-131890476D01*
X150007200Y-131890476D02*
X150054819Y-132033333D01*
X150054819Y-132033333D02*
X150054819Y-132128571D01*
X150054819Y-132128571D02*
X150007200Y-132271428D01*
X150007200Y-132271428D02*
X149911961Y-132366666D01*
X149911961Y-132366666D02*
X149816723Y-132414285D01*
X149816723Y-132414285D02*
X149626247Y-132461904D01*
X149626247Y-132461904D02*
X149483390Y-132461904D01*
X149483390Y-132461904D02*
X149292914Y-132414285D01*
X149292914Y-132414285D02*
X149197676Y-132366666D01*
X149197676Y-132366666D02*
X149102438Y-132271428D01*
X149102438Y-132271428D02*
X149054819Y-132128571D01*
X149054819Y-132128571D02*
X149054819Y-132033333D01*
X149054819Y-132033333D02*
X149102438Y-131890476D01*
X149102438Y-131890476D02*
X149150057Y-131842857D01*
X150054819Y-130890476D02*
X150054819Y-131461904D01*
X150054819Y-131176190D02*
X149054819Y-131176190D01*
X149054819Y-131176190D02*
X149197676Y-131271428D01*
X149197676Y-131271428D02*
X149292914Y-131366666D01*
X149292914Y-131366666D02*
X149340533Y-131461904D01*
X150054819Y-129938095D02*
X150054819Y-130509523D01*
X150054819Y-130223809D02*
X149054819Y-130223809D01*
X149054819Y-130223809D02*
X149197676Y-130319047D01*
X149197676Y-130319047D02*
X149292914Y-130414285D01*
X149292914Y-130414285D02*
X149340533Y-130509523D01*
X154257142Y-120559580D02*
X154209523Y-120607200D01*
X154209523Y-120607200D02*
X154066666Y-120654819D01*
X154066666Y-120654819D02*
X153971428Y-120654819D01*
X153971428Y-120654819D02*
X153828571Y-120607200D01*
X153828571Y-120607200D02*
X153733333Y-120511961D01*
X153733333Y-120511961D02*
X153685714Y-120416723D01*
X153685714Y-120416723D02*
X153638095Y-120226247D01*
X153638095Y-120226247D02*
X153638095Y-120083390D01*
X153638095Y-120083390D02*
X153685714Y-119892914D01*
X153685714Y-119892914D02*
X153733333Y-119797676D01*
X153733333Y-119797676D02*
X153828571Y-119702438D01*
X153828571Y-119702438D02*
X153971428Y-119654819D01*
X153971428Y-119654819D02*
X154066666Y-119654819D01*
X154066666Y-119654819D02*
X154209523Y-119702438D01*
X154209523Y-119702438D02*
X154257142Y-119750057D01*
X155209523Y-120654819D02*
X154638095Y-120654819D01*
X154923809Y-120654819D02*
X154923809Y-119654819D01*
X154923809Y-119654819D02*
X154828571Y-119797676D01*
X154828571Y-119797676D02*
X154733333Y-119892914D01*
X154733333Y-119892914D02*
X154638095Y-119940533D01*
X155828571Y-119654819D02*
X155923809Y-119654819D01*
X155923809Y-119654819D02*
X156019047Y-119702438D01*
X156019047Y-119702438D02*
X156066666Y-119750057D01*
X156066666Y-119750057D02*
X156114285Y-119845295D01*
X156114285Y-119845295D02*
X156161904Y-120035771D01*
X156161904Y-120035771D02*
X156161904Y-120273866D01*
X156161904Y-120273866D02*
X156114285Y-120464342D01*
X156114285Y-120464342D02*
X156066666Y-120559580D01*
X156066666Y-120559580D02*
X156019047Y-120607200D01*
X156019047Y-120607200D02*
X155923809Y-120654819D01*
X155923809Y-120654819D02*
X155828571Y-120654819D01*
X155828571Y-120654819D02*
X155733333Y-120607200D01*
X155733333Y-120607200D02*
X155685714Y-120559580D01*
X155685714Y-120559580D02*
X155638095Y-120464342D01*
X155638095Y-120464342D02*
X155590476Y-120273866D01*
X155590476Y-120273866D02*
X155590476Y-120035771D01*
X155590476Y-120035771D02*
X155638095Y-119845295D01*
X155638095Y-119845295D02*
X155685714Y-119750057D01*
X155685714Y-119750057D02*
X155733333Y-119702438D01*
X155733333Y-119702438D02*
X155828571Y-119654819D01*
X137759580Y-125066666D02*
X137807200Y-125114285D01*
X137807200Y-125114285D02*
X137854819Y-125257142D01*
X137854819Y-125257142D02*
X137854819Y-125352380D01*
X137854819Y-125352380D02*
X137807200Y-125495237D01*
X137807200Y-125495237D02*
X137711961Y-125590475D01*
X137711961Y-125590475D02*
X137616723Y-125638094D01*
X137616723Y-125638094D02*
X137426247Y-125685713D01*
X137426247Y-125685713D02*
X137283390Y-125685713D01*
X137283390Y-125685713D02*
X137092914Y-125638094D01*
X137092914Y-125638094D02*
X136997676Y-125590475D01*
X136997676Y-125590475D02*
X136902438Y-125495237D01*
X136902438Y-125495237D02*
X136854819Y-125352380D01*
X136854819Y-125352380D02*
X136854819Y-125257142D01*
X136854819Y-125257142D02*
X136902438Y-125114285D01*
X136902438Y-125114285D02*
X136950057Y-125066666D01*
X137854819Y-124590475D02*
X137854819Y-124399999D01*
X137854819Y-124399999D02*
X137807200Y-124304761D01*
X137807200Y-124304761D02*
X137759580Y-124257142D01*
X137759580Y-124257142D02*
X137616723Y-124161904D01*
X137616723Y-124161904D02*
X137426247Y-124114285D01*
X137426247Y-124114285D02*
X137045295Y-124114285D01*
X137045295Y-124114285D02*
X136950057Y-124161904D01*
X136950057Y-124161904D02*
X136902438Y-124209523D01*
X136902438Y-124209523D02*
X136854819Y-124304761D01*
X136854819Y-124304761D02*
X136854819Y-124495237D01*
X136854819Y-124495237D02*
X136902438Y-124590475D01*
X136902438Y-124590475D02*
X136950057Y-124638094D01*
X136950057Y-124638094D02*
X137045295Y-124685713D01*
X137045295Y-124685713D02*
X137283390Y-124685713D01*
X137283390Y-124685713D02*
X137378628Y-124638094D01*
X137378628Y-124638094D02*
X137426247Y-124590475D01*
X137426247Y-124590475D02*
X137473866Y-124495237D01*
X137473866Y-124495237D02*
X137473866Y-124304761D01*
X137473866Y-124304761D02*
X137426247Y-124209523D01*
X137426247Y-124209523D02*
X137378628Y-124161904D01*
X137378628Y-124161904D02*
X137283390Y-124114285D01*
X141433333Y-129659580D02*
X141385714Y-129707200D01*
X141385714Y-129707200D02*
X141242857Y-129754819D01*
X141242857Y-129754819D02*
X141147619Y-129754819D01*
X141147619Y-129754819D02*
X141004762Y-129707200D01*
X141004762Y-129707200D02*
X140909524Y-129611961D01*
X140909524Y-129611961D02*
X140861905Y-129516723D01*
X140861905Y-129516723D02*
X140814286Y-129326247D01*
X140814286Y-129326247D02*
X140814286Y-129183390D01*
X140814286Y-129183390D02*
X140861905Y-128992914D01*
X140861905Y-128992914D02*
X140909524Y-128897676D01*
X140909524Y-128897676D02*
X141004762Y-128802438D01*
X141004762Y-128802438D02*
X141147619Y-128754819D01*
X141147619Y-128754819D02*
X141242857Y-128754819D01*
X141242857Y-128754819D02*
X141385714Y-128802438D01*
X141385714Y-128802438D02*
X141433333Y-128850057D01*
X142004762Y-129183390D02*
X141909524Y-129135771D01*
X141909524Y-129135771D02*
X141861905Y-129088152D01*
X141861905Y-129088152D02*
X141814286Y-128992914D01*
X141814286Y-128992914D02*
X141814286Y-128945295D01*
X141814286Y-128945295D02*
X141861905Y-128850057D01*
X141861905Y-128850057D02*
X141909524Y-128802438D01*
X141909524Y-128802438D02*
X142004762Y-128754819D01*
X142004762Y-128754819D02*
X142195238Y-128754819D01*
X142195238Y-128754819D02*
X142290476Y-128802438D01*
X142290476Y-128802438D02*
X142338095Y-128850057D01*
X142338095Y-128850057D02*
X142385714Y-128945295D01*
X142385714Y-128945295D02*
X142385714Y-128992914D01*
X142385714Y-128992914D02*
X142338095Y-129088152D01*
X142338095Y-129088152D02*
X142290476Y-129135771D01*
X142290476Y-129135771D02*
X142195238Y-129183390D01*
X142195238Y-129183390D02*
X142004762Y-129183390D01*
X142004762Y-129183390D02*
X141909524Y-129231009D01*
X141909524Y-129231009D02*
X141861905Y-129278628D01*
X141861905Y-129278628D02*
X141814286Y-129373866D01*
X141814286Y-129373866D02*
X141814286Y-129564342D01*
X141814286Y-129564342D02*
X141861905Y-129659580D01*
X141861905Y-129659580D02*
X141909524Y-129707200D01*
X141909524Y-129707200D02*
X142004762Y-129754819D01*
X142004762Y-129754819D02*
X142195238Y-129754819D01*
X142195238Y-129754819D02*
X142290476Y-129707200D01*
X142290476Y-129707200D02*
X142338095Y-129659580D01*
X142338095Y-129659580D02*
X142385714Y-129564342D01*
X142385714Y-129564342D02*
X142385714Y-129373866D01*
X142385714Y-129373866D02*
X142338095Y-129278628D01*
X142338095Y-129278628D02*
X142290476Y-129231009D01*
X142290476Y-129231009D02*
X142195238Y-129183390D01*
X140233333Y-128559580D02*
X140185714Y-128607200D01*
X140185714Y-128607200D02*
X140042857Y-128654819D01*
X140042857Y-128654819D02*
X139947619Y-128654819D01*
X139947619Y-128654819D02*
X139804762Y-128607200D01*
X139804762Y-128607200D02*
X139709524Y-128511961D01*
X139709524Y-128511961D02*
X139661905Y-128416723D01*
X139661905Y-128416723D02*
X139614286Y-128226247D01*
X139614286Y-128226247D02*
X139614286Y-128083390D01*
X139614286Y-128083390D02*
X139661905Y-127892914D01*
X139661905Y-127892914D02*
X139709524Y-127797676D01*
X139709524Y-127797676D02*
X139804762Y-127702438D01*
X139804762Y-127702438D02*
X139947619Y-127654819D01*
X139947619Y-127654819D02*
X140042857Y-127654819D01*
X140042857Y-127654819D02*
X140185714Y-127702438D01*
X140185714Y-127702438D02*
X140233333Y-127750057D01*
X140566667Y-127654819D02*
X141233333Y-127654819D01*
X141233333Y-127654819D02*
X140804762Y-128654819D01*
X175059580Y-141066666D02*
X175107200Y-141114285D01*
X175107200Y-141114285D02*
X175154819Y-141257142D01*
X175154819Y-141257142D02*
X175154819Y-141352380D01*
X175154819Y-141352380D02*
X175107200Y-141495237D01*
X175107200Y-141495237D02*
X175011961Y-141590475D01*
X175011961Y-141590475D02*
X174916723Y-141638094D01*
X174916723Y-141638094D02*
X174726247Y-141685713D01*
X174726247Y-141685713D02*
X174583390Y-141685713D01*
X174583390Y-141685713D02*
X174392914Y-141638094D01*
X174392914Y-141638094D02*
X174297676Y-141590475D01*
X174297676Y-141590475D02*
X174202438Y-141495237D01*
X174202438Y-141495237D02*
X174154819Y-141352380D01*
X174154819Y-141352380D02*
X174154819Y-141257142D01*
X174154819Y-141257142D02*
X174202438Y-141114285D01*
X174202438Y-141114285D02*
X174250057Y-141066666D01*
X174488152Y-140209523D02*
X175154819Y-140209523D01*
X174107200Y-140447618D02*
X174821485Y-140685713D01*
X174821485Y-140685713D02*
X174821485Y-140066666D01*
X172233333Y-143359580D02*
X172185714Y-143407200D01*
X172185714Y-143407200D02*
X172042857Y-143454819D01*
X172042857Y-143454819D02*
X171947619Y-143454819D01*
X171947619Y-143454819D02*
X171804762Y-143407200D01*
X171804762Y-143407200D02*
X171709524Y-143311961D01*
X171709524Y-143311961D02*
X171661905Y-143216723D01*
X171661905Y-143216723D02*
X171614286Y-143026247D01*
X171614286Y-143026247D02*
X171614286Y-142883390D01*
X171614286Y-142883390D02*
X171661905Y-142692914D01*
X171661905Y-142692914D02*
X171709524Y-142597676D01*
X171709524Y-142597676D02*
X171804762Y-142502438D01*
X171804762Y-142502438D02*
X171947619Y-142454819D01*
X171947619Y-142454819D02*
X172042857Y-142454819D01*
X172042857Y-142454819D02*
X172185714Y-142502438D01*
X172185714Y-142502438D02*
X172233333Y-142550057D01*
X172566667Y-142454819D02*
X173185714Y-142454819D01*
X173185714Y-142454819D02*
X172852381Y-142835771D01*
X172852381Y-142835771D02*
X172995238Y-142835771D01*
X172995238Y-142835771D02*
X173090476Y-142883390D01*
X173090476Y-142883390D02*
X173138095Y-142931009D01*
X173138095Y-142931009D02*
X173185714Y-143026247D01*
X173185714Y-143026247D02*
X173185714Y-143264342D01*
X173185714Y-143264342D02*
X173138095Y-143359580D01*
X173138095Y-143359580D02*
X173090476Y-143407200D01*
X173090476Y-143407200D02*
X172995238Y-143454819D01*
X172995238Y-143454819D02*
X172709524Y-143454819D01*
X172709524Y-143454819D02*
X172614286Y-143407200D01*
X172614286Y-143407200D02*
X172566667Y-143359580D01*
X123033333Y-145859580D02*
X122985714Y-145907200D01*
X122985714Y-145907200D02*
X122842857Y-145954819D01*
X122842857Y-145954819D02*
X122747619Y-145954819D01*
X122747619Y-145954819D02*
X122604762Y-145907200D01*
X122604762Y-145907200D02*
X122509524Y-145811961D01*
X122509524Y-145811961D02*
X122461905Y-145716723D01*
X122461905Y-145716723D02*
X122414286Y-145526247D01*
X122414286Y-145526247D02*
X122414286Y-145383390D01*
X122414286Y-145383390D02*
X122461905Y-145192914D01*
X122461905Y-145192914D02*
X122509524Y-145097676D01*
X122509524Y-145097676D02*
X122604762Y-145002438D01*
X122604762Y-145002438D02*
X122747619Y-144954819D01*
X122747619Y-144954819D02*
X122842857Y-144954819D01*
X122842857Y-144954819D02*
X122985714Y-145002438D01*
X122985714Y-145002438D02*
X123033333Y-145050057D01*
X123414286Y-145050057D02*
X123461905Y-145002438D01*
X123461905Y-145002438D02*
X123557143Y-144954819D01*
X123557143Y-144954819D02*
X123795238Y-144954819D01*
X123795238Y-144954819D02*
X123890476Y-145002438D01*
X123890476Y-145002438D02*
X123938095Y-145050057D01*
X123938095Y-145050057D02*
X123985714Y-145145295D01*
X123985714Y-145145295D02*
X123985714Y-145240533D01*
X123985714Y-145240533D02*
X123938095Y-145383390D01*
X123938095Y-145383390D02*
X123366667Y-145954819D01*
X123366667Y-145954819D02*
X123985714Y-145954819D01*
X128519580Y-140466666D02*
X128567200Y-140514285D01*
X128567200Y-140514285D02*
X128614819Y-140657142D01*
X128614819Y-140657142D02*
X128614819Y-140752380D01*
X128614819Y-140752380D02*
X128567200Y-140895237D01*
X128567200Y-140895237D02*
X128471961Y-140990475D01*
X128471961Y-140990475D02*
X128376723Y-141038094D01*
X128376723Y-141038094D02*
X128186247Y-141085713D01*
X128186247Y-141085713D02*
X128043390Y-141085713D01*
X128043390Y-141085713D02*
X127852914Y-141038094D01*
X127852914Y-141038094D02*
X127757676Y-140990475D01*
X127757676Y-140990475D02*
X127662438Y-140895237D01*
X127662438Y-140895237D02*
X127614819Y-140752380D01*
X127614819Y-140752380D02*
X127614819Y-140657142D01*
X127614819Y-140657142D02*
X127662438Y-140514285D01*
X127662438Y-140514285D02*
X127710057Y-140466666D01*
X128614819Y-139514285D02*
X128614819Y-140085713D01*
X128614819Y-139799999D02*
X127614819Y-139799999D01*
X127614819Y-139799999D02*
X127757676Y-139895237D01*
X127757676Y-139895237D02*
X127852914Y-139990475D01*
X127852914Y-139990475D02*
X127900533Y-140085713D01*
D11*
%TO.C,C13*%
X154890000Y-142565580D02*
X154890000Y-142284420D01*
X155910000Y-142565580D02*
X155910000Y-142284420D01*
%TO.C,C6*%
X136792500Y-141107836D02*
X136792500Y-140892164D01*
X136072500Y-141107836D02*
X136072500Y-140892164D01*
%TO.C,C12*%
X167522500Y-145862164D02*
X167522500Y-146077836D01*
X166802500Y-145862164D02*
X166802500Y-146077836D01*
%TO.C,D2*%
X156165000Y-143985000D02*
X158435000Y-143985000D01*
X158435000Y-143985000D02*
X158435000Y-140100000D01*
X156165000Y-140100000D02*
X156165000Y-143985000D01*
%TO.C,L1*%
X160761252Y-143310000D02*
X160238748Y-143310000D01*
X160761252Y-141090000D02*
X160238748Y-141090000D01*
%TO.C,R4*%
X138505436Y-142090000D02*
X139959564Y-142090000D01*
X138505436Y-140270000D02*
X139959564Y-140270000D01*
%TO.C,R5*%
X134927064Y-142145000D02*
X134472936Y-142145000D01*
X134927064Y-143615000D02*
X134472936Y-143615000D01*
%TO.C,R12*%
X162777500Y-143712258D02*
X162777500Y-143237742D01*
X163822500Y-143712258D02*
X163822500Y-143237742D01*
%TO.C,R15*%
X155342500Y-144686359D02*
X155342500Y-144993641D01*
X154582500Y-144686359D02*
X154582500Y-144993641D01*
%TO.C,R13*%
X158222500Y-145237742D02*
X158222500Y-145712258D01*
X157177500Y-145237742D02*
X157177500Y-145712258D01*
%TO.C,R14*%
X155677500Y-145712258D02*
X155677500Y-145237742D01*
X156722500Y-145712258D02*
X156722500Y-145237742D01*
%TO.C,U9*%
X160500000Y-143740000D02*
X159700000Y-143740000D01*
X160500000Y-143740000D02*
X161300000Y-143740000D01*
X160500000Y-146860000D02*
X159700000Y-146860000D01*
X160500000Y-146860000D02*
X161300000Y-146860000D01*
X159200000Y-143790000D02*
X158960000Y-143460000D01*
X159440000Y-143460000D01*
X159200000Y-143790000D01*
G36*
X159200000Y-143790000D02*
G01*
X158960000Y-143460000D01*
X159440000Y-143460000D01*
X159200000Y-143790000D01*
G37*
%TO.C,U5*%
X129882500Y-144020000D02*
X129642500Y-143690000D01*
X130122500Y-143690000D01*
X129882500Y-144020000D01*
G36*
X129882500Y-144020000D02*
G01*
X129642500Y-143690000D01*
X130122500Y-143690000D01*
X129882500Y-144020000D01*
G37*
X132595000Y-149140000D02*
X134545000Y-149140000D01*
X132595000Y-149140000D02*
X130645000Y-149140000D01*
X132595000Y-144020000D02*
X134545000Y-144020000D01*
X132595000Y-144020000D02*
X130645000Y-144020000D01*
%TO.C,U8*%
X164600000Y-145140000D02*
X163800000Y-145140000D01*
X164600000Y-145140000D02*
X165400000Y-145140000D01*
X164600000Y-148260000D02*
X163800000Y-148260000D01*
X164600000Y-148260000D02*
X165400000Y-148260000D01*
X163300000Y-145190000D02*
X163060000Y-144860000D01*
X163540000Y-144860000D01*
X163300000Y-145190000D01*
G36*
X163300000Y-145190000D02*
G01*
X163060000Y-144860000D01*
X163540000Y-144860000D01*
X163300000Y-145190000D01*
G37*
%TO.C,J3*%
X147020000Y-146430000D02*
X147020000Y-144730000D01*
X137680000Y-146430000D02*
X137680000Y-144730000D01*
%TO.C,U6*%
X140027500Y-126585000D02*
X139747500Y-126305000D01*
X140027500Y-126305000D01*
X140027500Y-126585000D01*
G36*
X140027500Y-126585000D02*
G01*
X139747500Y-126305000D01*
X140027500Y-126305000D01*
X140027500Y-126585000D01*
G37*
X139797500Y-126065000D02*
X139797500Y-123375000D01*
X143017500Y-126175000D02*
X143017500Y-123375000D01*
%TO.C,D1*%
X152963871Y-125500000D02*
X153077500Y-125500000D01*
X152963871Y-125500000D02*
G75*
G02*
X150311129Y-125500000I-1326371J0D01*
G01*
X150311129Y-125500000D02*
G75*
G02*
X152963871Y-125500000I1326371J0D01*
G01*
%TO.C,J1*%
X167730000Y-133670000D02*
X167730000Y-135000000D01*
X166400000Y-133670000D02*
X167730000Y-133670000D01*
X165130000Y-133670000D02*
X126970000Y-133670000D01*
X165130000Y-133670000D02*
X165130000Y-136270000D01*
X126970000Y-133670000D02*
X126970000Y-138870000D01*
X167730000Y-136270000D02*
X167730000Y-138870000D01*
X165130000Y-136270000D02*
X167730000Y-136270000D01*
X167730000Y-138870000D02*
X126970000Y-138870000D01*
%TO.C,U7*%
X145077500Y-123000000D02*
X145077500Y-124950000D01*
X145077500Y-123000000D02*
X145077500Y-121050000D01*
X150197500Y-123000000D02*
X150197500Y-124950000D01*
X150197500Y-123000000D02*
X150197500Y-121050000D01*
X145172500Y-125700000D02*
X144842500Y-125940000D01*
X144842500Y-125460000D01*
X145172500Y-125700000D01*
G36*
X145172500Y-125700000D02*
G01*
X144842500Y-125940000D01*
X144842500Y-125460000D01*
X145172500Y-125700000D01*
G37*
%TO.C,U4*%
X141905000Y-112225000D02*
X141905000Y-114175000D01*
X141905000Y-112225000D02*
X141905000Y-110275000D01*
X147025000Y-112225000D02*
X147025000Y-114175000D01*
X147025000Y-112225000D02*
X147025000Y-110275000D01*
X142000000Y-114925000D02*
X141670000Y-115165000D01*
X141670000Y-114685000D01*
X142000000Y-114925000D01*
G36*
X142000000Y-114925000D02*
G01*
X141670000Y-115165000D01*
X141670000Y-114685000D01*
X142000000Y-114925000D01*
G37*
%TO.C,U3*%
X173735000Y-138337500D02*
X173735000Y-136137500D01*
X173735000Y-138337500D02*
X173735000Y-140537500D01*
X168265000Y-138337500D02*
X168265000Y-136137500D01*
X168265000Y-138337500D02*
X168265000Y-140537500D01*
X173275000Y-134477500D02*
X173035000Y-134147500D01*
X173515000Y-134147500D01*
X173275000Y-134477500D01*
G36*
X173275000Y-134477500D02*
G01*
X173035000Y-134147500D01*
X173515000Y-134147500D01*
X173275000Y-134477500D01*
G37*
%TO.C,U2*%
X126435000Y-139887500D02*
X126435000Y-137687500D01*
X126435000Y-139887500D02*
X126435000Y-142087500D01*
X120965000Y-139887500D02*
X120965000Y-137687500D01*
X120965000Y-139887500D02*
X120965000Y-142087500D01*
X125975000Y-136027500D02*
X125735000Y-135697500D01*
X126215000Y-135697500D01*
X125975000Y-136027500D01*
G36*
X125975000Y-136027500D02*
G01*
X125735000Y-135697500D01*
X126215000Y-135697500D01*
X125975000Y-136027500D01*
G37*
%TO.C,U1*%
X159600000Y-117565000D02*
X158800000Y-117565000D01*
X159600000Y-117565000D02*
X160400000Y-117565000D01*
X159600000Y-120685000D02*
X158800000Y-120685000D01*
X159600000Y-120685000D02*
X160400000Y-120685000D01*
X158300000Y-117640000D02*
X158060000Y-117310000D01*
X158540000Y-117310000D01*
X158300000Y-117640000D01*
G36*
X158300000Y-117640000D02*
G01*
X158060000Y-117310000D01*
X158540000Y-117310000D01*
X158300000Y-117640000D01*
G37*
%TO.C,R23*%
X144747500Y-130110436D02*
X144747500Y-131564564D01*
X142927500Y-130110436D02*
X142927500Y-131564564D01*
%TO.C,R22*%
X145002064Y-119010000D02*
X143547936Y-119010000D01*
X145002064Y-117190000D02*
X143547936Y-117190000D01*
%TO.C,R21*%
X142679564Y-108260000D02*
X142225436Y-108260000D01*
X142679564Y-106790000D02*
X142225436Y-106790000D01*
%TO.C,R20*%
X141675242Y-120952500D02*
X142149758Y-120952500D01*
X141675242Y-121997500D02*
X142149758Y-121997500D01*
%TO.C,R19*%
X142149758Y-120497500D02*
X141675242Y-120497500D01*
X142149758Y-119452500D02*
X141675242Y-119452500D01*
%TO.C,R18*%
X147202742Y-105302500D02*
X147677258Y-105302500D01*
X147202742Y-106347500D02*
X147677258Y-106347500D01*
%TO.C,R17*%
X147425436Y-106790000D02*
X147879564Y-106790000D01*
X147425436Y-108260000D02*
X147879564Y-108260000D01*
%TO.C,R16*%
X157447500Y-127210436D02*
X157447500Y-128664564D01*
X155627500Y-127210436D02*
X155627500Y-128664564D01*
%TO.C,R11*%
X149260000Y-127987742D02*
X149260000Y-128462258D01*
X148215000Y-127987742D02*
X148215000Y-128462258D01*
%TO.C,R10*%
X147760000Y-127937742D02*
X147760000Y-128412258D01*
X146715000Y-127937742D02*
X146715000Y-128412258D01*
%TO.C,R9*%
X146260000Y-127937742D02*
X146260000Y-128412258D01*
X145215000Y-127937742D02*
X145215000Y-128412258D01*
%TO.C,R8*%
X142877258Y-106347500D02*
X142402742Y-106347500D01*
X142877258Y-105302500D02*
X142402742Y-105302500D01*
%TO.C,R7*%
X141491141Y-123055000D02*
X141183859Y-123055000D01*
X141491141Y-122295000D02*
X141183859Y-122295000D01*
%TO.C,R6*%
X143615000Y-121012258D02*
X143615000Y-120537742D01*
X144660000Y-121012258D02*
X144660000Y-120537742D01*
%TO.C,R3*%
X162922500Y-121212742D02*
X162922500Y-121687258D01*
X161877500Y-121212742D02*
X161877500Y-121687258D01*
%TO.C,R2*%
X162922500Y-118162742D02*
X162922500Y-118637258D01*
X161877500Y-118162742D02*
X161877500Y-118637258D01*
%TO.C,R1*%
X157310000Y-116297936D02*
X157310000Y-117752064D01*
X155490000Y-116297936D02*
X155490000Y-117752064D01*
%TO.C,Q4*%
X146900000Y-129840000D02*
X146250000Y-129840000D01*
X146900000Y-129840000D02*
X147550000Y-129840000D01*
X146900000Y-132960000D02*
X146250000Y-132960000D01*
X146900000Y-132960000D02*
X147550000Y-132960000D01*
X145737500Y-129890000D02*
X145497500Y-129560000D01*
X145977500Y-129560000D01*
X145737500Y-129890000D01*
G36*
X145737500Y-129890000D02*
G01*
X145497500Y-129560000D01*
X145977500Y-129560000D01*
X145737500Y-129890000D01*
G37*
%TO.C,Q3*%
X145105000Y-103125000D02*
X145105000Y-103775000D01*
X145105000Y-103125000D02*
X145105000Y-102475000D01*
X148225000Y-103125000D02*
X148225000Y-103775000D01*
X148225000Y-103125000D02*
X148225000Y-102475000D01*
X145155000Y-104287500D02*
X144825000Y-104527500D01*
X144825000Y-104047500D01*
X145155000Y-104287500D01*
G36*
X145155000Y-104287500D02*
G01*
X144825000Y-104527500D01*
X144825000Y-104047500D01*
X145155000Y-104287500D01*
G37*
%TO.C,Q2*%
X142227500Y-101765000D02*
X141577500Y-101765000D01*
X142227500Y-101765000D02*
X142877500Y-101765000D01*
X142227500Y-104885000D02*
X141577500Y-104885000D01*
X142227500Y-104885000D02*
X142877500Y-104885000D01*
X141065000Y-101815000D02*
X140825000Y-101485000D01*
X141305000Y-101485000D01*
X141065000Y-101815000D01*
G36*
X141065000Y-101815000D02*
G01*
X140825000Y-101485000D01*
X141305000Y-101485000D01*
X141065000Y-101815000D01*
G37*
%TO.C,Q1*%
X153475000Y-130060000D02*
X154125000Y-130060000D01*
X153475000Y-130060000D02*
X152825000Y-130060000D01*
X153475000Y-126940000D02*
X154125000Y-126940000D01*
X153475000Y-126940000D02*
X152825000Y-126940000D01*
X154877500Y-130340000D02*
X154397500Y-130340000D01*
X154637500Y-130010000D01*
X154877500Y-130340000D01*
G36*
X154877500Y-130340000D02*
G01*
X154397500Y-130340000D01*
X154637500Y-130010000D01*
X154877500Y-130340000D01*
G37*
%TO.C,JP2*%
X161375000Y-123125000D02*
X158575000Y-123125000D01*
X161375000Y-121125000D02*
X161375000Y-123125000D01*
X158575000Y-123125000D02*
X158575000Y-121125000D01*
X158575000Y-121125000D02*
X161375000Y-121125000D01*
%TO.C,JP1*%
X162925000Y-116625000D02*
X160125000Y-116625000D01*
X162925000Y-114625000D02*
X162925000Y-116625000D01*
X160125000Y-116625000D02*
X160125000Y-114625000D01*
X160125000Y-114625000D02*
X162925000Y-114625000D01*
%TO.C,J2*%
X154897500Y-118910000D02*
X154897500Y-111090000D01*
X154897500Y-117310000D02*
X153977500Y-117310000D01*
X154897500Y-111090000D02*
X148777500Y-111090000D01*
X154137500Y-114950000D02*
X154137500Y-113350000D01*
X154137500Y-113350000D02*
X153137500Y-113350000D01*
X153977500Y-118910000D02*
X154897500Y-118910000D01*
X153977500Y-117310000D02*
X153977500Y-118910000D01*
X153697500Y-117310000D02*
X153977500Y-117310000D01*
X153697500Y-117310000D02*
X153697500Y-118525000D01*
X153637500Y-113350000D02*
X153637500Y-111090000D01*
X153137500Y-114950000D02*
X154137500Y-114950000D01*
X153137500Y-113350000D02*
X153137500Y-114950000D01*
X153137500Y-113350000D02*
X153137500Y-111090000D01*
X152337500Y-115450000D02*
X151337500Y-115450000D01*
X152337500Y-111090000D02*
X152337500Y-115450000D01*
X151337500Y-115450000D02*
X151337500Y-111090000D01*
X150537500Y-114950000D02*
X149537500Y-114950000D01*
X150537500Y-113350000D02*
X150537500Y-114950000D01*
X149697500Y-118910000D02*
X149697500Y-117310000D01*
X149697500Y-117310000D02*
X149977500Y-117310000D01*
X149537500Y-114950000D02*
X149537500Y-113350000D01*
X149537500Y-113350000D02*
X150537500Y-113350000D01*
X148777500Y-118910000D02*
X149697500Y-118910000D01*
X148777500Y-117310000D02*
X149697500Y-117310000D01*
X148777500Y-111090000D02*
X148777500Y-118910000D01*
%TO.C,C11*%
X149802500Y-128711252D02*
X149802500Y-128188748D01*
X151272500Y-128711252D02*
X151272500Y-128188748D01*
%TO.C,C10*%
X151721920Y-119590000D02*
X152003080Y-119590000D01*
X151721920Y-120610000D02*
X152003080Y-120610000D01*
%TO.C,C9*%
X139347500Y-124509420D02*
X139347500Y-124790580D01*
X138327500Y-124509420D02*
X138327500Y-124790580D01*
%TO.C,C8*%
X143427500Y-125115580D02*
X143427500Y-124834420D01*
X144447500Y-125115580D02*
X144447500Y-124834420D01*
%TO.C,C7*%
X140449664Y-126615000D02*
X140665336Y-126615000D01*
X140449664Y-127335000D02*
X140665336Y-127335000D01*
%TO.C,C4*%
X174760000Y-138662164D02*
X174760000Y-138877836D01*
X174040000Y-138662164D02*
X174040000Y-138877836D01*
%TO.C,C3*%
X170392164Y-142340000D02*
X170607836Y-142340000D01*
X170392164Y-143060000D02*
X170607836Y-143060000D01*
%TO.C,C2*%
X122972164Y-143840000D02*
X123187836Y-143840000D01*
X122972164Y-144560000D02*
X123187836Y-144560000D01*
%TO.C,C1*%
X127360000Y-140192164D02*
X127360000Y-140407836D01*
X126640000Y-140192164D02*
X126640000Y-140407836D01*
%TD*%
%LPC*%
%TO.C,JP2*%
G36*
X161200000Y-122875000D02*
G01*
X158750000Y-122875000D01*
X158750000Y-121375000D01*
X161200000Y-121375000D01*
X161200000Y-122875000D01*
G37*
%TO.C,JP1*%
G36*
X162750000Y-116375000D02*
G01*
X160300000Y-116375000D01*
X160300000Y-114875000D01*
X162750000Y-114875000D01*
X162750000Y-116375000D01*
G37*
%TD*%
D12*
%TO.C,C13*%
X155400000Y-143200000D03*
X155400000Y-141650000D03*
%TD*%
D13*
%TO.C,C6*%
X136432500Y-140520000D03*
X136432500Y-141480000D03*
%TD*%
D14*
%TO.C,C12*%
X167162500Y-145490000D03*
X167162500Y-146450000D03*
%TD*%
D15*
%TO.C,D2*%
X157300000Y-143100000D03*
X157300000Y-140300000D03*
%TD*%
D16*
%TO.C,L1*%
X161575000Y-142200000D03*
X159425000Y-142200000D03*
%TD*%
D17*
%TO.C,R4*%
X140695000Y-141180000D03*
X137770000Y-141180000D03*
%TD*%
D18*
%TO.C,R5*%
X133787500Y-142880000D03*
X135612500Y-142880000D03*
%TD*%
D19*
%TO.C,R12*%
X163300000Y-144300000D03*
X163300000Y-142650000D03*
%TD*%
D20*
%TO.C,R15*%
X154962500Y-144330000D03*
X154962500Y-145350000D03*
%TD*%
D21*
%TO.C,R13*%
X157700000Y-144650000D03*
X157700000Y-146300000D03*
%TD*%
D22*
%TO.C,SW2*%
X151000000Y-148800000D03*
D23*
X155800000Y-148800000D03*
X160600000Y-148800000D03*
%TD*%
D19*
%TO.C,R14*%
X156200000Y-146300000D03*
X156200000Y-144650000D03*
%TD*%
D24*
%TO.C,U9*%
X159362500Y-144350000D03*
X159362500Y-145300000D03*
X159362500Y-146250000D03*
X161637500Y-146250000D03*
X161637500Y-145300000D03*
X161637500Y-144350000D03*
%TD*%
D25*
%TO.C,U5*%
X132595000Y-146580000D03*
D26*
X135232500Y-144580000D03*
X135232500Y-145580000D03*
X135232500Y-146580000D03*
X135232500Y-147580000D03*
X135232500Y-148580000D03*
X129957500Y-148580000D03*
X129957500Y-147580000D03*
X129957500Y-146580000D03*
X129957500Y-145580000D03*
X129957500Y-144580000D03*
%TD*%
D24*
%TO.C,U8*%
X163462500Y-145750000D03*
X163462500Y-146700000D03*
X163462500Y-147650000D03*
X165737500Y-147650000D03*
X165737500Y-145750000D03*
%TD*%
D27*
%TO.C,J3*%
X146670000Y-147480000D03*
X146670000Y-143680000D03*
X138030000Y-147480000D03*
X138030000Y-143680000D03*
D28*
X139600000Y-143600000D03*
D29*
X140830000Y-143600000D03*
D30*
X142850000Y-143600000D03*
D31*
X145100000Y-143600000D03*
D32*
X143870000Y-143600000D03*
D33*
X141850000Y-143600000D03*
%TD*%
D34*
%TO.C,U6*%
X141407500Y-124775000D03*
D35*
X140432500Y-123712500D03*
X141082500Y-123712500D03*
X141732500Y-123712500D03*
X142382500Y-123712500D03*
X142382500Y-125837500D03*
X141732500Y-125837500D03*
X141082500Y-125837500D03*
X140432500Y-125837500D03*
%TD*%
D36*
%TO.C,D1*%
X151637500Y-125500000D03*
D37*
X154177500Y-125500000D03*
%TD*%
D38*
%TO.C,J1*%
X166400000Y-135000000D03*
D39*
X166400000Y-137540000D03*
X163860000Y-135000000D03*
X163860000Y-137540000D03*
X161320000Y-135000000D03*
X161320000Y-137540000D03*
X158780000Y-135000000D03*
X158780000Y-137540000D03*
X156240000Y-135000000D03*
X156240000Y-137540000D03*
X153700000Y-135000000D03*
X153700000Y-137540000D03*
X151160000Y-135000000D03*
X151160000Y-137540000D03*
X148620000Y-135000000D03*
X148620000Y-137540000D03*
X146080000Y-135000000D03*
X146080000Y-137540000D03*
X143540000Y-135000000D03*
X143540000Y-137540000D03*
X141000000Y-135000000D03*
X141000000Y-137540000D03*
X138460000Y-135000000D03*
X138460000Y-137540000D03*
X135920000Y-135000000D03*
X135920000Y-137540000D03*
X133380000Y-135000000D03*
X133380000Y-137540000D03*
X130840000Y-135000000D03*
X130840000Y-137540000D03*
X128300000Y-135000000D03*
X128300000Y-137540000D03*
%TD*%
D40*
%TO.C,U7*%
X145732500Y-125475000D03*
X147002500Y-125475000D03*
X148272500Y-125475000D03*
X149542500Y-125475000D03*
X149542500Y-120525000D03*
X148272500Y-120525000D03*
X147002500Y-120525000D03*
X145732500Y-120525000D03*
D41*
X147637500Y-123000000D03*
%TD*%
D40*
%TO.C,U4*%
X142560000Y-114700000D03*
X143830000Y-114700000D03*
X145100000Y-114700000D03*
X146370000Y-114700000D03*
X146370000Y-109750000D03*
X145100000Y-109750000D03*
X143830000Y-109750000D03*
X142560000Y-109750000D03*
%TD*%
D42*
%TO.C,U3*%
X173275000Y-135475000D03*
X172625000Y-135475000D03*
X171975000Y-135475000D03*
X171325000Y-135475000D03*
X170675000Y-135475000D03*
X170025000Y-135475000D03*
X169375000Y-135475000D03*
X168725000Y-135475000D03*
X168725000Y-141200000D03*
X169375000Y-141200000D03*
X170025000Y-141200000D03*
X170675000Y-141200000D03*
X171325000Y-141200000D03*
X171975000Y-141200000D03*
X172625000Y-141200000D03*
X173275000Y-141200000D03*
%TD*%
%TO.C,U2*%
X125975000Y-137025000D03*
X125325000Y-137025000D03*
X124675000Y-137025000D03*
X124025000Y-137025000D03*
X123375000Y-137025000D03*
X122725000Y-137025000D03*
X122075000Y-137025000D03*
X121425000Y-137025000D03*
X121425000Y-142750000D03*
X122075000Y-142750000D03*
X122725000Y-142750000D03*
X123375000Y-142750000D03*
X124025000Y-142750000D03*
X124675000Y-142750000D03*
X125325000Y-142750000D03*
X125975000Y-142750000D03*
%TD*%
D43*
%TO.C,U1*%
X158462500Y-118150000D03*
X158462500Y-118800000D03*
X158462500Y-119450000D03*
X158462500Y-120100000D03*
X160737500Y-120100000D03*
X160737500Y-119450000D03*
X160737500Y-118800000D03*
X160737500Y-118150000D03*
%TD*%
D44*
%TO.C,R23*%
X143837500Y-129375000D03*
X143837500Y-132300000D03*
%TD*%
D45*
%TO.C,R22*%
X145737500Y-118100000D03*
X142812500Y-118100000D03*
%TD*%
D18*
%TO.C,R21*%
X143365000Y-107525000D03*
X141540000Y-107525000D03*
%TD*%
D46*
%TO.C,R20*%
X141087500Y-121475000D03*
X142737500Y-121475000D03*
%TD*%
D47*
%TO.C,R19*%
X142737500Y-119975000D03*
X141087500Y-119975000D03*
%TD*%
D46*
%TO.C,R18*%
X146615000Y-105825000D03*
X148265000Y-105825000D03*
%TD*%
D48*
%TO.C,R17*%
X146740000Y-107525000D03*
X148565000Y-107525000D03*
%TD*%
D44*
%TO.C,R16*%
X156537500Y-126475000D03*
X156537500Y-129400000D03*
%TD*%
D21*
%TO.C,R11*%
X148737500Y-127400000D03*
X148737500Y-129050000D03*
%TD*%
%TO.C,R10*%
X147237500Y-127350000D03*
X147237500Y-129000000D03*
%TD*%
%TO.C,R9*%
X145737500Y-127350000D03*
X145737500Y-129000000D03*
%TD*%
D47*
%TO.C,R8*%
X143465000Y-105825000D03*
X141815000Y-105825000D03*
%TD*%
D49*
%TO.C,R7*%
X141847500Y-122675000D03*
X140827500Y-122675000D03*
%TD*%
D19*
%TO.C,R6*%
X144137500Y-121600000D03*
X144137500Y-119950000D03*
%TD*%
D21*
%TO.C,R3*%
X162400000Y-120625000D03*
X162400000Y-122275000D03*
%TD*%
%TO.C,R2*%
X162400000Y-117575000D03*
X162400000Y-119225000D03*
%TD*%
D44*
%TO.C,R1*%
X156400000Y-115562500D03*
X156400000Y-118487500D03*
%TD*%
D50*
%TO.C,Q4*%
X145962500Y-130450000D03*
X145962500Y-132350000D03*
X147837500Y-131400000D03*
%TD*%
D51*
%TO.C,Q3*%
X145715000Y-104062500D03*
X147615000Y-104062500D03*
X146665000Y-102187500D03*
%TD*%
D50*
%TO.C,Q2*%
X141290000Y-102375000D03*
X141290000Y-104275000D03*
X143165000Y-103325000D03*
%TD*%
D52*
%TO.C,Q1*%
X154412500Y-129450000D03*
X154412500Y-127550000D03*
X152537500Y-128500000D03*
%TD*%
D53*
%TO.C,JP2*%
X160700000Y-122125000D03*
D54*
X159250000Y-122125000D03*
%TD*%
D53*
%TO.C,JP1*%
X162250000Y-115625000D03*
D54*
X160800000Y-115625000D03*
%TD*%
D55*
%TO.C,J2*%
X152837500Y-117450000D03*
D56*
X150837500Y-117450000D03*
%TD*%
D57*
%TO.C,C11*%
X150537500Y-129400000D03*
X150537500Y-127500000D03*
%TD*%
D58*
%TO.C,C10*%
X151087500Y-120100000D03*
X152637500Y-120100000D03*
%TD*%
D59*
%TO.C,C9*%
X138837500Y-123875000D03*
X138837500Y-125425000D03*
%TD*%
D12*
%TO.C,C8*%
X143937500Y-125750000D03*
X143937500Y-124200000D03*
%TD*%
D60*
%TO.C,C7*%
X140077500Y-126975000D03*
X141037500Y-126975000D03*
%TD*%
D14*
%TO.C,C4*%
X174400000Y-138290000D03*
X174400000Y-139250000D03*
%TD*%
D60*
%TO.C,C3*%
X170020000Y-142700000D03*
X170980000Y-142700000D03*
%TD*%
%TO.C,C2*%
X122600000Y-144200000D03*
X123560000Y-144200000D03*
%TD*%
D14*
%TO.C,C1*%
X127000000Y-139820000D03*
X127000000Y-140780000D03*
%TD*%
%LPD*%
M02*
