%TF.GenerationSoftware,KiCad,Pcbnew,9.0.0*%
%TF.CreationDate,2025-03-28T07:35:41+02:00*%
%TF.ProjectId,EEE3088F_micro_mouse_power_subsystem,45454533-3038-4384-965f-6d6963726f5f,v0*%
%TF.SameCoordinates,Original*%
%TF.FileFunction,Legend,Bot*%
%TF.FilePolarity,Positive*%
%FSLAX46Y46*%
G04 Gerber Fmt 4.6, Leading zero omitted, Abs format (unit mm)*
G04 Created by KiCad (PCBNEW 9.0.0) date 2025-03-28 07:35:41*
%MOMM*%
%LPD*%
G01*
G04 APERTURE LIST*
G04 Aperture macros list*
%AMRoundRect*
0 Rectangle with rounded corners*
0 $1 Rounding radius*
0 $2 $3 $4 $5 $6 $7 $8 $9 X,Y pos of 4 corners*
0 Add a 4 corners polygon primitive as box body*
4,1,4,$2,$3,$4,$5,$6,$7,$8,$9,$2,$3,0*
0 Add four circle primitives for the rounded corners*
1,1,$1+$1,$2,$3*
1,1,$1+$1,$4,$5*
1,1,$1+$1,$6,$7*
1,1,$1+$1,$8,$9*
0 Add four rect primitives between the rounded corners*
20,1,$1+$1,$2,$3,$4,$5,0*
20,1,$1+$1,$4,$5,$6,$7,0*
20,1,$1+$1,$6,$7,$8,$9,0*
20,1,$1+$1,$8,$9,$2,$3,0*%
G04 Aperture macros list end*
%ADD10C,0.150000*%
%ADD11RoundRect,0.249999X-1.025001X-1.025001X1.025001X-1.025001X1.025001X1.025001X-1.025001X1.025001X0*%
%ADD12C,2.550000*%
%ADD13O,1.100000X1.700000*%
%ADD14R,1.600000X1.600000*%
%ADD15O,1.600000X1.600000*%
%ADD16R,1.700000X1.700000*%
%ADD17O,1.700000X1.700000*%
%ADD18RoundRect,0.250000X0.350000X0.625000X-0.350000X0.625000X-0.350000X-0.625000X0.350000X-0.625000X0*%
%ADD19O,1.200000X1.750000*%
G04 APERTURE END LIST*
D10*
X132949931Y-111236779D02*
X131949931Y-111236779D01*
X131949931Y-111236779D02*
X132664216Y-111570112D01*
X132664216Y-111570112D02*
X131949931Y-111903445D01*
X131949931Y-111903445D02*
X132949931Y-111903445D01*
X131949931Y-112236779D02*
X131949931Y-112808207D01*
X132949931Y-112522493D02*
X131949931Y-112522493D01*
X132949931Y-113617731D02*
X132949931Y-113141541D01*
X132949931Y-113141541D02*
X131949931Y-113141541D01*
X132949931Y-113951065D02*
X131949931Y-113951065D01*
X132949931Y-114522493D02*
X132378502Y-114093922D01*
X131949931Y-114522493D02*
X132521359Y-113951065D01*
X132949931Y-114951065D02*
X131949931Y-114951065D01*
X132426121Y-114951065D02*
X132426121Y-115522493D01*
X132949931Y-115522493D02*
X131949931Y-115522493D01*
X131949931Y-115998684D02*
X132759454Y-115998684D01*
X132759454Y-115998684D02*
X132854692Y-116046303D01*
X132854692Y-116046303D02*
X132902312Y-116093922D01*
X132902312Y-116093922D02*
X132949931Y-116189160D01*
X132949931Y-116189160D02*
X132949931Y-116379636D01*
X132949931Y-116379636D02*
X132902312Y-116474874D01*
X132902312Y-116474874D02*
X132854692Y-116522493D01*
X132854692Y-116522493D02*
X132759454Y-116570112D01*
X132759454Y-116570112D02*
X131949931Y-116570112D01*
X131949931Y-117236779D02*
X131949931Y-117332017D01*
X131949931Y-117332017D02*
X131997550Y-117427255D01*
X131997550Y-117427255D02*
X132045169Y-117474874D01*
X132045169Y-117474874D02*
X132140407Y-117522493D01*
X132140407Y-117522493D02*
X132330883Y-117570112D01*
X132330883Y-117570112D02*
X132568978Y-117570112D01*
X132568978Y-117570112D02*
X132759454Y-117522493D01*
X132759454Y-117522493D02*
X132854692Y-117474874D01*
X132854692Y-117474874D02*
X132902312Y-117427255D01*
X132902312Y-117427255D02*
X132949931Y-117332017D01*
X132949931Y-117332017D02*
X132949931Y-117236779D01*
X132949931Y-117236779D02*
X132902312Y-117141541D01*
X132902312Y-117141541D02*
X132854692Y-117093922D01*
X132854692Y-117093922D02*
X132759454Y-117046303D01*
X132759454Y-117046303D02*
X132568978Y-116998684D01*
X132568978Y-116998684D02*
X132330883Y-116998684D01*
X132330883Y-116998684D02*
X132140407Y-117046303D01*
X132140407Y-117046303D02*
X132045169Y-117093922D01*
X132045169Y-117093922D02*
X131997550Y-117141541D01*
X131997550Y-117141541D02*
X131949931Y-117236779D01*
X131949931Y-118189160D02*
X131949931Y-118284398D01*
X131949931Y-118284398D02*
X131997550Y-118379636D01*
X131997550Y-118379636D02*
X132045169Y-118427255D01*
X132045169Y-118427255D02*
X132140407Y-118474874D01*
X132140407Y-118474874D02*
X132330883Y-118522493D01*
X132330883Y-118522493D02*
X132568978Y-118522493D01*
X132568978Y-118522493D02*
X132759454Y-118474874D01*
X132759454Y-118474874D02*
X132854692Y-118427255D01*
X132854692Y-118427255D02*
X132902312Y-118379636D01*
X132902312Y-118379636D02*
X132949931Y-118284398D01*
X132949931Y-118284398D02*
X132949931Y-118189160D01*
X132949931Y-118189160D02*
X132902312Y-118093922D01*
X132902312Y-118093922D02*
X132854692Y-118046303D01*
X132854692Y-118046303D02*
X132759454Y-117998684D01*
X132759454Y-117998684D02*
X132568978Y-117951065D01*
X132568978Y-117951065D02*
X132330883Y-117951065D01*
X132330883Y-117951065D02*
X132140407Y-117998684D01*
X132140407Y-117998684D02*
X132045169Y-118046303D01*
X132045169Y-118046303D02*
X131997550Y-118093922D01*
X131997550Y-118093922D02*
X131949931Y-118189160D01*
X132949931Y-118998684D02*
X132949931Y-119189160D01*
X132949931Y-119189160D02*
X132902312Y-119284398D01*
X132902312Y-119284398D02*
X132854692Y-119332017D01*
X132854692Y-119332017D02*
X132711835Y-119427255D01*
X132711835Y-119427255D02*
X132521359Y-119474874D01*
X132521359Y-119474874D02*
X132140407Y-119474874D01*
X132140407Y-119474874D02*
X132045169Y-119427255D01*
X132045169Y-119427255D02*
X131997550Y-119379636D01*
X131997550Y-119379636D02*
X131949931Y-119284398D01*
X131949931Y-119284398D02*
X131949931Y-119093922D01*
X131949931Y-119093922D02*
X131997550Y-118998684D01*
X131997550Y-118998684D02*
X132045169Y-118951065D01*
X132045169Y-118951065D02*
X132140407Y-118903446D01*
X132140407Y-118903446D02*
X132378502Y-118903446D01*
X132378502Y-118903446D02*
X132473740Y-118951065D01*
X132473740Y-118951065D02*
X132521359Y-118998684D01*
X132521359Y-118998684D02*
X132568978Y-119093922D01*
X132568978Y-119093922D02*
X132568978Y-119284398D01*
X132568978Y-119284398D02*
X132521359Y-119379636D01*
X132521359Y-119379636D02*
X132473740Y-119427255D01*
X132473740Y-119427255D02*
X132378502Y-119474874D01*
X132949931Y-121474875D02*
X132949931Y-121427256D01*
X132949931Y-121427256D02*
X132902312Y-121332017D01*
X132902312Y-121332017D02*
X132759454Y-121189160D01*
X132759454Y-121189160D02*
X132473740Y-120951065D01*
X132473740Y-120951065D02*
X132330883Y-120855827D01*
X132330883Y-120855827D02*
X132188026Y-120808208D01*
X132188026Y-120808208D02*
X132092788Y-120808208D01*
X132092788Y-120808208D02*
X131997550Y-120855827D01*
X131997550Y-120855827D02*
X131949931Y-120951065D01*
X131949931Y-120951065D02*
X131949931Y-120998684D01*
X131949931Y-120998684D02*
X131997550Y-121093922D01*
X131997550Y-121093922D02*
X132092788Y-121141541D01*
X132092788Y-121141541D02*
X132140407Y-121141541D01*
X132140407Y-121141541D02*
X132235645Y-121093922D01*
X132235645Y-121093922D02*
X132283264Y-121046303D01*
X132283264Y-121046303D02*
X132473740Y-120760589D01*
X132473740Y-120760589D02*
X132521359Y-120712970D01*
X132521359Y-120712970D02*
X132616597Y-120665351D01*
X132616597Y-120665351D02*
X132759454Y-120665351D01*
X132759454Y-120665351D02*
X132854692Y-120712970D01*
X132854692Y-120712970D02*
X132902312Y-120760589D01*
X132902312Y-120760589D02*
X132949931Y-120855827D01*
X132949931Y-120855827D02*
X132949931Y-120998684D01*
X132949931Y-120998684D02*
X132902312Y-121093922D01*
X132902312Y-121093922D02*
X132854692Y-121141541D01*
X132854692Y-121141541D02*
X132664216Y-121284398D01*
X132664216Y-121284398D02*
X132521359Y-121332017D01*
X132521359Y-121332017D02*
X132426121Y-121332017D01*
X131949931Y-122522494D02*
X132949931Y-122855827D01*
X132949931Y-122855827D02*
X131949931Y-123189160D01*
X132949931Y-124093922D02*
X132473740Y-123760589D01*
X132949931Y-123522494D02*
X131949931Y-123522494D01*
X131949931Y-123522494D02*
X131949931Y-123903446D01*
X131949931Y-123903446D02*
X131997550Y-123998684D01*
X131997550Y-123998684D02*
X132045169Y-124046303D01*
X132045169Y-124046303D02*
X132140407Y-124093922D01*
X132140407Y-124093922D02*
X132283264Y-124093922D01*
X132283264Y-124093922D02*
X132378502Y-124046303D01*
X132378502Y-124046303D02*
X132426121Y-123998684D01*
X132426121Y-123998684D02*
X132473740Y-123903446D01*
X132473740Y-123903446D02*
X132473740Y-123522494D01*
X132902312Y-124474875D02*
X132949931Y-124617732D01*
X132949931Y-124617732D02*
X132949931Y-124855827D01*
X132949931Y-124855827D02*
X132902312Y-124951065D01*
X132902312Y-124951065D02*
X132854692Y-124998684D01*
X132854692Y-124998684D02*
X132759454Y-125046303D01*
X132759454Y-125046303D02*
X132664216Y-125046303D01*
X132664216Y-125046303D02*
X132568978Y-124998684D01*
X132568978Y-124998684D02*
X132521359Y-124951065D01*
X132521359Y-124951065D02*
X132473740Y-124855827D01*
X132473740Y-124855827D02*
X132426121Y-124665351D01*
X132426121Y-124665351D02*
X132378502Y-124570113D01*
X132378502Y-124570113D02*
X132330883Y-124522494D01*
X132330883Y-124522494D02*
X132235645Y-124474875D01*
X132235645Y-124474875D02*
X132140407Y-124474875D01*
X132140407Y-124474875D02*
X132045169Y-124522494D01*
X132045169Y-124522494D02*
X131997550Y-124570113D01*
X131997550Y-124570113D02*
X131949931Y-124665351D01*
X131949931Y-124665351D02*
X131949931Y-124903446D01*
X131949931Y-124903446D02*
X131997550Y-125046303D01*
X132949931Y-125474875D02*
X131949931Y-125474875D01*
X131949931Y-125474875D02*
X132949931Y-126046303D01*
X132949931Y-126046303D02*
X131949931Y-126046303D01*
X132426121Y-126522494D02*
X132426121Y-126855827D01*
X132949931Y-126998684D02*
X132949931Y-126522494D01*
X132949931Y-126522494D02*
X131949931Y-126522494D01*
X131949931Y-126522494D02*
X131949931Y-126998684D01*
X131949931Y-127617732D02*
X131949931Y-127808208D01*
X131949931Y-127808208D02*
X131997550Y-127903446D01*
X131997550Y-127903446D02*
X132092788Y-127998684D01*
X132092788Y-127998684D02*
X132283264Y-128046303D01*
X132283264Y-128046303D02*
X132616597Y-128046303D01*
X132616597Y-128046303D02*
X132807073Y-127998684D01*
X132807073Y-127998684D02*
X132902312Y-127903446D01*
X132902312Y-127903446D02*
X132949931Y-127808208D01*
X132949931Y-127808208D02*
X132949931Y-127617732D01*
X132949931Y-127617732D02*
X132902312Y-127522494D01*
X132902312Y-127522494D02*
X132807073Y-127427256D01*
X132807073Y-127427256D02*
X132616597Y-127379637D01*
X132616597Y-127379637D02*
X132283264Y-127379637D01*
X132283264Y-127379637D02*
X132092788Y-127427256D01*
X132092788Y-127427256D02*
X131997550Y-127522494D01*
X131997550Y-127522494D02*
X131949931Y-127617732D01*
X131949931Y-128665351D02*
X131949931Y-128760589D01*
X131949931Y-128760589D02*
X131997550Y-128855827D01*
X131997550Y-128855827D02*
X132045169Y-128903446D01*
X132045169Y-128903446D02*
X132140407Y-128951065D01*
X132140407Y-128951065D02*
X132330883Y-128998684D01*
X132330883Y-128998684D02*
X132568978Y-128998684D01*
X132568978Y-128998684D02*
X132759454Y-128951065D01*
X132759454Y-128951065D02*
X132854692Y-128903446D01*
X132854692Y-128903446D02*
X132902312Y-128855827D01*
X132902312Y-128855827D02*
X132949931Y-128760589D01*
X132949931Y-128760589D02*
X132949931Y-128665351D01*
X132949931Y-128665351D02*
X132902312Y-128570113D01*
X132902312Y-128570113D02*
X132854692Y-128522494D01*
X132854692Y-128522494D02*
X132759454Y-128474875D01*
X132759454Y-128474875D02*
X132568978Y-128427256D01*
X132568978Y-128427256D02*
X132330883Y-128427256D01*
X132330883Y-128427256D02*
X132140407Y-128474875D01*
X132140407Y-128474875D02*
X132045169Y-128522494D01*
X132045169Y-128522494D02*
X131997550Y-128570113D01*
X131997550Y-128570113D02*
X131949931Y-128665351D01*
X131949931Y-129617732D02*
X131949931Y-129712970D01*
X131949931Y-129712970D02*
X131997550Y-129808208D01*
X131997550Y-129808208D02*
X132045169Y-129855827D01*
X132045169Y-129855827D02*
X132140407Y-129903446D01*
X132140407Y-129903446D02*
X132330883Y-129951065D01*
X132330883Y-129951065D02*
X132568978Y-129951065D01*
X132568978Y-129951065D02*
X132759454Y-129903446D01*
X132759454Y-129903446D02*
X132854692Y-129855827D01*
X132854692Y-129855827D02*
X132902312Y-129808208D01*
X132902312Y-129808208D02*
X132949931Y-129712970D01*
X132949931Y-129712970D02*
X132949931Y-129617732D01*
X132949931Y-129617732D02*
X132902312Y-129522494D01*
X132902312Y-129522494D02*
X132854692Y-129474875D01*
X132854692Y-129474875D02*
X132759454Y-129427256D01*
X132759454Y-129427256D02*
X132568978Y-129379637D01*
X132568978Y-129379637D02*
X132330883Y-129379637D01*
X132330883Y-129379637D02*
X132140407Y-129427256D01*
X132140407Y-129427256D02*
X132045169Y-129474875D01*
X132045169Y-129474875D02*
X131997550Y-129522494D01*
X131997550Y-129522494D02*
X131949931Y-129617732D01*
X132949931Y-130903446D02*
X132949931Y-130332018D01*
X132949931Y-130617732D02*
X131949931Y-130617732D01*
X131949931Y-130617732D02*
X132092788Y-130522494D01*
X132092788Y-130522494D02*
X132188026Y-130427256D01*
X132188026Y-130427256D02*
X132235645Y-130332018D01*
X133607494Y-111760588D02*
X133559875Y-111665350D01*
X133559875Y-111665350D02*
X133559875Y-111522493D01*
X133559875Y-111522493D02*
X133607494Y-111379636D01*
X133607494Y-111379636D02*
X133702732Y-111284398D01*
X133702732Y-111284398D02*
X133797970Y-111236779D01*
X133797970Y-111236779D02*
X133988446Y-111189160D01*
X133988446Y-111189160D02*
X134131303Y-111189160D01*
X134131303Y-111189160D02*
X134321779Y-111236779D01*
X134321779Y-111236779D02*
X134417017Y-111284398D01*
X134417017Y-111284398D02*
X134512256Y-111379636D01*
X134512256Y-111379636D02*
X134559875Y-111522493D01*
X134559875Y-111522493D02*
X134559875Y-111617731D01*
X134559875Y-111617731D02*
X134512256Y-111760588D01*
X134512256Y-111760588D02*
X134464636Y-111808207D01*
X134464636Y-111808207D02*
X134131303Y-111808207D01*
X134131303Y-111808207D02*
X134131303Y-111617731D01*
X134559875Y-112236779D02*
X133893208Y-112236779D01*
X134083684Y-112236779D02*
X133988446Y-112284398D01*
X133988446Y-112284398D02*
X133940827Y-112332017D01*
X133940827Y-112332017D02*
X133893208Y-112427255D01*
X133893208Y-112427255D02*
X133893208Y-112522493D01*
X134559875Y-112998684D02*
X134512256Y-112903446D01*
X134512256Y-112903446D02*
X134464636Y-112855827D01*
X134464636Y-112855827D02*
X134369398Y-112808208D01*
X134369398Y-112808208D02*
X134083684Y-112808208D01*
X134083684Y-112808208D02*
X133988446Y-112855827D01*
X133988446Y-112855827D02*
X133940827Y-112903446D01*
X133940827Y-112903446D02*
X133893208Y-112998684D01*
X133893208Y-112998684D02*
X133893208Y-113141541D01*
X133893208Y-113141541D02*
X133940827Y-113236779D01*
X133940827Y-113236779D02*
X133988446Y-113284398D01*
X133988446Y-113284398D02*
X134083684Y-113332017D01*
X134083684Y-113332017D02*
X134369398Y-113332017D01*
X134369398Y-113332017D02*
X134464636Y-113284398D01*
X134464636Y-113284398D02*
X134512256Y-113236779D01*
X134512256Y-113236779D02*
X134559875Y-113141541D01*
X134559875Y-113141541D02*
X134559875Y-112998684D01*
X133893208Y-114189160D02*
X134559875Y-114189160D01*
X133893208Y-113760589D02*
X134417017Y-113760589D01*
X134417017Y-113760589D02*
X134512256Y-113808208D01*
X134512256Y-113808208D02*
X134559875Y-113903446D01*
X134559875Y-113903446D02*
X134559875Y-114046303D01*
X134559875Y-114046303D02*
X134512256Y-114141541D01*
X134512256Y-114141541D02*
X134464636Y-114189160D01*
X133893208Y-114665351D02*
X134893208Y-114665351D01*
X133940827Y-114665351D02*
X133893208Y-114760589D01*
X133893208Y-114760589D02*
X133893208Y-114951065D01*
X133893208Y-114951065D02*
X133940827Y-115046303D01*
X133940827Y-115046303D02*
X133988446Y-115093922D01*
X133988446Y-115093922D02*
X134083684Y-115141541D01*
X134083684Y-115141541D02*
X134369398Y-115141541D01*
X134369398Y-115141541D02*
X134464636Y-115093922D01*
X134464636Y-115093922D02*
X134512256Y-115046303D01*
X134512256Y-115046303D02*
X134559875Y-114951065D01*
X134559875Y-114951065D02*
X134559875Y-114760589D01*
X134559875Y-114760589D02*
X134512256Y-114665351D01*
X133559875Y-116760589D02*
X133559875Y-116570113D01*
X133559875Y-116570113D02*
X133607494Y-116474875D01*
X133607494Y-116474875D02*
X133655113Y-116427256D01*
X133655113Y-116427256D02*
X133797970Y-116332018D01*
X133797970Y-116332018D02*
X133988446Y-116284399D01*
X133988446Y-116284399D02*
X134369398Y-116284399D01*
X134369398Y-116284399D02*
X134464636Y-116332018D01*
X134464636Y-116332018D02*
X134512256Y-116379637D01*
X134512256Y-116379637D02*
X134559875Y-116474875D01*
X134559875Y-116474875D02*
X134559875Y-116665351D01*
X134559875Y-116665351D02*
X134512256Y-116760589D01*
X134512256Y-116760589D02*
X134464636Y-116808208D01*
X134464636Y-116808208D02*
X134369398Y-116855827D01*
X134369398Y-116855827D02*
X134131303Y-116855827D01*
X134131303Y-116855827D02*
X134036065Y-116808208D01*
X134036065Y-116808208D02*
X133988446Y-116760589D01*
X133988446Y-116760589D02*
X133940827Y-116665351D01*
X133940827Y-116665351D02*
X133940827Y-116474875D01*
X133940827Y-116474875D02*
X133988446Y-116379637D01*
X133988446Y-116379637D02*
X134036065Y-116332018D01*
X134036065Y-116332018D02*
X134131303Y-116284399D01*
X133893208Y-117712970D02*
X134559875Y-117712970D01*
X133512256Y-117474875D02*
X134226541Y-117236780D01*
X134226541Y-117236780D02*
X134226541Y-117855827D01*
X135169819Y-111522493D02*
X135884104Y-111522493D01*
X135884104Y-111522493D02*
X136026961Y-111474874D01*
X136026961Y-111474874D02*
X136122200Y-111379636D01*
X136122200Y-111379636D02*
X136169819Y-111236779D01*
X136169819Y-111236779D02*
X136169819Y-111141541D01*
X136169819Y-112474874D02*
X136169819Y-111998684D01*
X136169819Y-111998684D02*
X135169819Y-111998684D01*
X136074580Y-113379636D02*
X136122200Y-113332017D01*
X136122200Y-113332017D02*
X136169819Y-113189160D01*
X136169819Y-113189160D02*
X136169819Y-113093922D01*
X136169819Y-113093922D02*
X136122200Y-112951065D01*
X136122200Y-112951065D02*
X136026961Y-112855827D01*
X136026961Y-112855827D02*
X135931723Y-112808208D01*
X135931723Y-112808208D02*
X135741247Y-112760589D01*
X135741247Y-112760589D02*
X135598390Y-112760589D01*
X135598390Y-112760589D02*
X135407914Y-112808208D01*
X135407914Y-112808208D02*
X135312676Y-112855827D01*
X135312676Y-112855827D02*
X135217438Y-112951065D01*
X135217438Y-112951065D02*
X135169819Y-113093922D01*
X135169819Y-113093922D02*
X135169819Y-113189160D01*
X135169819Y-113189160D02*
X135217438Y-113332017D01*
X135217438Y-113332017D02*
X135265057Y-113379636D01*
X135169819Y-114093922D02*
X135884104Y-114093922D01*
X135884104Y-114093922D02*
X136026961Y-114046303D01*
X136026961Y-114046303D02*
X136122200Y-113951065D01*
X136122200Y-113951065D02*
X136169819Y-113808208D01*
X136169819Y-113808208D02*
X136169819Y-113712970D01*
X136169819Y-115046303D02*
X136169819Y-114570113D01*
X136169819Y-114570113D02*
X135169819Y-114570113D01*
X136074580Y-115951065D02*
X136122200Y-115903446D01*
X136122200Y-115903446D02*
X136169819Y-115760589D01*
X136169819Y-115760589D02*
X136169819Y-115665351D01*
X136169819Y-115665351D02*
X136122200Y-115522494D01*
X136122200Y-115522494D02*
X136026961Y-115427256D01*
X136026961Y-115427256D02*
X135931723Y-115379637D01*
X135931723Y-115379637D02*
X135741247Y-115332018D01*
X135741247Y-115332018D02*
X135598390Y-115332018D01*
X135598390Y-115332018D02*
X135407914Y-115379637D01*
X135407914Y-115379637D02*
X135312676Y-115427256D01*
X135312676Y-115427256D02*
X135217438Y-115522494D01*
X135217438Y-115522494D02*
X135169819Y-115665351D01*
X135169819Y-115665351D02*
X135169819Y-115760589D01*
X135169819Y-115760589D02*
X135217438Y-115903446D01*
X135217438Y-115903446D02*
X135265057Y-115951065D01*
X135169819Y-116665351D02*
X135884104Y-116665351D01*
X135884104Y-116665351D02*
X136026961Y-116617732D01*
X136026961Y-116617732D02*
X136122200Y-116522494D01*
X136122200Y-116522494D02*
X136169819Y-116379637D01*
X136169819Y-116379637D02*
X136169819Y-116284399D01*
X136169819Y-117617732D02*
X136169819Y-117141542D01*
X136169819Y-117141542D02*
X135169819Y-117141542D01*
X136074580Y-118522494D02*
X136122200Y-118474875D01*
X136122200Y-118474875D02*
X136169819Y-118332018D01*
X136169819Y-118332018D02*
X136169819Y-118236780D01*
X136169819Y-118236780D02*
X136122200Y-118093923D01*
X136122200Y-118093923D02*
X136026961Y-117998685D01*
X136026961Y-117998685D02*
X135931723Y-117951066D01*
X135931723Y-117951066D02*
X135741247Y-117903447D01*
X135741247Y-117903447D02*
X135598390Y-117903447D01*
X135598390Y-117903447D02*
X135407914Y-117951066D01*
X135407914Y-117951066D02*
X135312676Y-117998685D01*
X135312676Y-117998685D02*
X135217438Y-118093923D01*
X135217438Y-118093923D02*
X135169819Y-118236780D01*
X135169819Y-118236780D02*
X135169819Y-118332018D01*
X135169819Y-118332018D02*
X135217438Y-118474875D01*
X135217438Y-118474875D02*
X135265057Y-118522494D01*
X135169819Y-119236780D02*
X135884104Y-119236780D01*
X135884104Y-119236780D02*
X136026961Y-119189161D01*
X136026961Y-119189161D02*
X136122200Y-119093923D01*
X136122200Y-119093923D02*
X136169819Y-118951066D01*
X136169819Y-118951066D02*
X136169819Y-118855828D01*
X136169819Y-120189161D02*
X136169819Y-119712971D01*
X136169819Y-119712971D02*
X135169819Y-119712971D01*
X136074580Y-121093923D02*
X136122200Y-121046304D01*
X136122200Y-121046304D02*
X136169819Y-120903447D01*
X136169819Y-120903447D02*
X136169819Y-120808209D01*
X136169819Y-120808209D02*
X136122200Y-120665352D01*
X136122200Y-120665352D02*
X136026961Y-120570114D01*
X136026961Y-120570114D02*
X135931723Y-120522495D01*
X135931723Y-120522495D02*
X135741247Y-120474876D01*
X135741247Y-120474876D02*
X135598390Y-120474876D01*
X135598390Y-120474876D02*
X135407914Y-120522495D01*
X135407914Y-120522495D02*
X135312676Y-120570114D01*
X135312676Y-120570114D02*
X135217438Y-120665352D01*
X135217438Y-120665352D02*
X135169819Y-120808209D01*
X135169819Y-120808209D02*
X135169819Y-120903447D01*
X135169819Y-120903447D02*
X135217438Y-121046304D01*
X135217438Y-121046304D02*
X135265057Y-121093923D01*
%LPC*%
D11*
%TO.C,SW2*%
X151000000Y-148800000D03*
D12*
X155800000Y-148800000D03*
X160600000Y-148800000D03*
%TD*%
D13*
%TO.C,J3*%
X146670000Y-147480000D03*
X146670000Y-143680000D03*
X138030000Y-147480000D03*
X138030000Y-143680000D03*
%TD*%
D14*
%TO.C,D1*%
X151637500Y-125500000D03*
D15*
X154177500Y-125500000D03*
%TD*%
D16*
%TO.C,J1*%
X166400000Y-135000000D03*
D17*
X166400000Y-137540000D03*
X163860000Y-135000000D03*
X163860000Y-137540000D03*
X161320000Y-135000000D03*
X161320000Y-137540000D03*
X158780000Y-135000000D03*
X158780000Y-137540000D03*
X156240000Y-135000000D03*
X156240000Y-137540000D03*
X153700000Y-135000000D03*
X153700000Y-137540000D03*
X151160000Y-135000000D03*
X151160000Y-137540000D03*
X148620000Y-135000000D03*
X148620000Y-137540000D03*
X146080000Y-135000000D03*
X146080000Y-137540000D03*
X143540000Y-135000000D03*
X143540000Y-137540000D03*
X141000000Y-135000000D03*
X141000000Y-137540000D03*
X138460000Y-135000000D03*
X138460000Y-137540000D03*
X135920000Y-135000000D03*
X135920000Y-137540000D03*
X133380000Y-135000000D03*
X133380000Y-137540000D03*
X130840000Y-135000000D03*
X130840000Y-137540000D03*
X128300000Y-135000000D03*
X128300000Y-137540000D03*
%TD*%
D18*
%TO.C,J2*%
X152837500Y-117450000D03*
D19*
X150837500Y-117450000D03*
%TD*%
%LPD*%
M02*
