M48
; DRILL file {KiCad 9.0.0} date 2025-03-28T07:35:41+0200
; FORMAT={-:-/ absolute / inch / decimal}
; #@! TF.CreationDate,2025-03-28T07:35:41+02:00
; #@! TF.GenerationSoftware,Kicad,Pcbnew,9.0.0
; #@! TF.FileFunction,Plated,1,2,PTH
FMAT,2
INCH
; #@! TA.AperFunction,Plated,PTH,ComponentDrill
T1C0.0079
; #@! TA.AperFunction,Plated,PTH,ViaDrill
T2C0.0157
; #@! TA.AperFunction,Plated,PTH,ComponentDrill
T3C0.0236
; #@! TA.AperFunction,Plated,PTH,ComponentDrill
T4C0.0295
; #@! TA.AperFunction,Plated,PTH,ComponentDrill
T5C0.0315
; #@! TA.AperFunction,Plated,PTH,ComponentDrill
T6C0.0394
; #@! TA.AperFunction,Plated,PTH,ComponentDrill
T7C0.0610
%
G90
G05
T1
X5.5377Y-4.9124
X5.5672Y-4.9124
X5.5968Y-4.9124
X5.7653Y-4.815
X5.7653Y-4.8701
X5.8125Y-4.815
X5.8125Y-4.8701
X5.8597Y-4.815
X5.8597Y-4.8701
T2
X5.0Y-5.8268
X5.1063Y-5.1732
X5.4803Y-4.0827
X5.4803Y-5.563
X5.5354Y-5.1378
X5.6181Y-4.5827
X5.7126Y-4.4449
X5.7358Y-4.0394
X5.815Y-4.563
X5.8386Y-5.1378
X5.8661Y-5.748
X5.9449Y-4.8661
X5.9567Y-5.2087
X6.0079Y-5.5079
X6.0512Y-5.5866
X6.1496Y-4.8622
X6.2677Y-4.9291
X6.4374Y-4.9296
X6.4488Y-4.5866
X6.4488Y-4.7008
X6.5354Y-5.0394
X6.5354Y-5.6772
X6.5866Y-5.1929
X6.6063Y-5.6614
X6.6811Y-5.2756
X6.7795Y-5.437
T4
X5.9385Y-4.624
X6.0172Y-4.624
T5
X5.97Y-4.9409
X6.07Y-4.9409
T6
X5.0512Y-5.315
X5.0512Y-5.415
X5.1512Y-5.315
X5.1512Y-5.415
X5.2512Y-5.315
X5.2512Y-5.415
X5.3512Y-5.315
X5.3512Y-5.415
X5.4512Y-5.315
X5.4512Y-5.415
X5.5512Y-5.315
X5.5512Y-5.415
X5.6512Y-5.315
X5.6512Y-5.415
X5.7512Y-5.315
X5.7512Y-5.415
X5.8512Y-5.315
X5.8512Y-5.415
X5.9512Y-5.315
X5.9512Y-5.415
X6.0512Y-5.315
X6.0512Y-5.415
X6.1512Y-5.315
X6.1512Y-5.415
X6.2512Y-5.315
X6.2512Y-5.415
X6.3512Y-5.315
X6.3512Y-5.415
X6.4512Y-5.315
X6.4512Y-5.415
X6.5512Y-5.315
X6.5512Y-5.415
T7
X5.9449Y-5.8583
X6.1339Y-5.8583
X6.3228Y-5.8583
T3
G00X5.4343Y-5.6449
M15
G01X5.4343Y-5.6685
M16
G05
G00X5.4343Y-5.7945
M15
G01X5.4343Y-5.8181
M16
G05
G00X5.7744Y-5.6449
M15
G01X5.7744Y-5.6685
M16
G05
G00X5.7744Y-5.7945
M15
G01X5.7744Y-5.8181
M16
G05
M30
